<?xml version="1.0" encoding="UTF-8"?>
<svg width="236px" height="70px" viewBox="0 0 236 70" version="1.1" xmlns="http://www.w3.org/2000/svg" xmlns:xlink="http://www.w3.org/1999/xlink">
    <!-- Generator: Sketch 51.3 (57544) - http://www.bohemiancoding.com/sketch -->
    <title>Artboard Copy 4</title>
    <desc>Created with Sketch.</desc>
    <defs></defs>
    <g id="Artboard-Copy-4" stroke="none" stroke-width="1" fill="none" fill-rule="evenodd">
        <g id="id_act" transform="translate(0.000000, 10.000000)" fill-rule="nonzero">
            <path d="M32.58,7.42 L37.93,7.42 L37.93,13 L32.58,13 L32.58,7.42 Z M32.84,17.6 L37.67,17.6 L37.67,43 L32.84,43 L32.84,17.6 Z" id="Shape" fill="#0000FF"></path>
            <path d="M43.78,30.32 C43.78,21.92 48.87,17.09 55.23,17.09 C58.79,17.09 61.84,18.87 63.11,21.16 L63.11,7.42 L68,7.42 L68,43 L63.16,43 L63.16,39.48 C61.89,41.77 58.33,43.55 54.77,43.55 C48.36,43.55 43.78,38.71 43.78,30.32 Z M55.94,39.48 C59.55,39.48 63.11,36.42 63.11,30.32 C63.11,24.22 59.55,21.16 55.94,21.16 L55.53,21.16 C51.67,21.16 48.61,24.16 48.61,30.32 C48.61,36.48 51.67,39.48 55.53,39.48 L55.94,39.48 Z" id="Shape" fill="#0000FF"></path>
            <path d="M74.05,30.27 C74.05,21.46 79.91,17.09 85.91,17.09 C92.52,17.09 96.7,21.67 96.7,28.28 L96.7,31.08 L78.89,31.08 C79.19,36.88 82.89,39.48 86.01,39.48 L86.42,39.48 C88.91,39.48 91.3,38.2 91.81,35.48 L96.65,35.48 C95.73,40.62 91.3,43.48 86.06,43.48 C79.75,43.55 74.05,39.17 74.05,30.27 Z M91.86,27.27 C91.66,22.85 89.01,21.17 86.11,21.17 L85.71,21.17 C83.06,21.17 80.11,22.74 79.19,27.27 L91.86,27.27 Z" id="Shape" fill="#0000FF"></path>
            <path d="M102.8,17.6 L107.64,17.6 L107.64,21.16 C109.442571,18.4591955 112.537814,16.9115745 115.78,17.09 C121.63,17.09 124.94,20.65 124.94,25.99 L124.94,43 L120.1,43 L120.1,27 C120.1,23.44 118.58,21.15 114.96,21.15 L114.56,21.15 C110.94,21.15 107.64,23.95 107.64,28.78 L107.64,43 L102.8,43 L102.8,17.6 Z" id="Shape" fill="#0000FF"></path>
            <path d="M134.76,37.44 L134.76,21.77 L129.16,21.77 L129.16,17.6 L134.76,17.6 L134.76,9.35 L139.59,9.35 L139.59,17.6 L145.7,17.6 L145.7,21.77 L139.59,21.77 L139.59,36.68 C139.59,38.2 140.1,38.68 141.59,38.68 L146.42,38.68 L146.42,43 L140.32,43 C136.79,43 134.76,41 134.76,37.44 Z" id="Shape" fill="#0000FF"></path>
            <path d="M166.82,37.44 L166.82,21.77 L161.22,21.77 L161.22,17.6 L166.82,17.6 L166.82,9.35 L171.65,9.35 L171.65,17.6 L177.76,17.6 L177.76,21.77 L171.65,21.77 L171.65,36.68 C171.65,38.2 172.16,38.68 173.65,38.68 L178.48,38.68 L178.48,43 L172.37,43 C168.85,43 166.82,41 166.82,37.44 Z" id="Shape" fill="#0000FF"></path>
            <path d="M196.23,42.48 L196.23,47.11 C196.23,50.67 194.446667,52.45 190.88,52.45 L182.49,52.45 L182.49,48.13 L189.61,48.13 C191.14,48.13 191.61,47.62 191.61,46.13 L191.61,42.53 L181,17.6 L186.14,17.6 L194,36.37 L201.63,17.6 L206.63,17.6 L196.23,42.48 Z" id="Shape" fill="#0000FF"></path>
            <path d="M151.45,7.42 L156.79,7.42 L156.79,13 L151.45,13 L151.45,7.42 Z M151.7,17.6 L156.54,17.6 L156.54,43 L151.7,43 L151.7,17.6 Z" id="Shape" fill="#0000FF"></path>
            <polygon id="Shape" fill="#0000FF" points="23.36 24 7.8 30.23 23.36 36.29 23.36 41.87 0.55 32.48 0.55 28.15 23.36 18.75"></polygon>
            <polygon id="Shape" fill="#0000FF" points="235.76 28.2 235.76 32.49 213 41.89 213 36.68 228.56 30.45 213 24.39 213 18.81"></polygon>
            <polygon id="Shape" fill="#0000FF" points="23.36 24 7.8 30.23 23.36 36.29 23.36 41.87 0.55 32.48 0.55 28.15 23.36 18.75"></polygon>
            <polygon id="Shape" fill="#0000FF" points="235.76 28.2 235.76 32.49 213 41.89 213 36.68 228.56 30.45 213 24.39 213 18.81"></polygon>
            <rect id="Rectangle-path" stroke="#0000FF" stroke-width="0.84" fill="#FFFFFF" x="112.79" y="9.94" width="18.56" height="40.92"></rect>
            <rect id="Rectangle-path" stroke="#0000FF" stroke-width="0.84" fill="#FFFFFF" x="124.98" y="5.91" width="18.98" height="12.8"></rect>
            <path d="M119.82,39.76 L119.82,40.12 C119.88575,41.0037988 119.577345,41.8745888 118.97,42.52 C118.413683,43.0082779 118.05752,43.684987 117.97,44.42 C117.97,45.13 118.41,45.6 119.28,45.61 C119.78007,45.6160318 120.269533,45.4656968 120.68,45.18 L121.01,46.06 C120.411255,46.4344962 119.716044,46.6256793 119.01,46.61 C118.428292,46.7013119 117.835904,46.5316433 117.39074,46.1462199 C116.945576,45.7607965 116.692877,45.1987881 116.7,44.61 C116.783391,43.6866981 117.207624,42.8275374 117.89,42.2 C118.414863,41.6688361 118.7002,40.9464642 118.68,40.2 L118.68,39.84 L119.82,39.76 Z M120.12,37.82 C120.103499,38.2754176 119.722894,38.6323543 119.267355,38.6196221 C118.811817,38.6068899 118.451743,38.2292514 118.460705,37.7736231 C118.469667,37.3179948 118.844313,36.9548083 119.3,36.96 C119.524589,36.9597326 119.739458,37.0515942 119.894441,37.2141376 C120.049424,37.3766811 120.130956,37.5956785 120.12,37.82 Z" id="Shape" fill="#0000FF"></path>
            <path d="M134.16,8.93 C134.149044,8.70567849 134.230576,8.48668106 134.385559,8.32413765 C134.540542,8.16159424 134.755411,8.06973262 134.98,8.07 C135.454965,8.07000006 135.84,8.45503516 135.84,8.93 C135.84,9.40496484 135.454965,9.78999994 134.98,9.79 C134.755411,9.79026738 134.540542,9.69840576 134.385559,9.53586235 C134.230576,9.37331894 134.149044,9.15432151 134.16,8.93 Z M134.51,6.93 L134.32,0.28 L135.65,0.28 L135.45,6.93 L134.51,6.93 Z" id="Shape" fill="#0000FF"></path>
        </g>
    </g>
</svg>