<?xml version="1.0" encoding="utf-8"?>
<!-- Generator: Adobe Illustrator 23.0.1, SVG Export Plug-In . SVG Version: 6.00 Build 0)  -->
<svg version="1.1" id="Layer_1" xmlns="http://www.w3.org/2000/svg" xmlns:xlink="http://www.w3.org/1999/xlink" x="0px" y="0px"
	 viewBox="0 0 1920 1200" style="enable-background:new 0 0 1920 1200;" xml:space="preserve">
<style type="text/css">
	.st0{fill:#0000FF;}
	.st1{fill:#FFFFFF;stroke:#000000;stroke-width:3.7011;stroke-miterlimit:10;}
	.st2{fill:#FFFFFF;stroke:#0000FF;stroke-width:4.8155;stroke-miterlimit:10;}
	.st3{fill:none;stroke:#0000FF;stroke-width:4.252;stroke-miterlimit:10;}
	.st4{fill:#FFFFFF;stroke:#0000FF;stroke-width:4.252;stroke-miterlimit:10;}
	.st5{fill:#FFFFFF;stroke:#0000FF;stroke-width:4.457;stroke-miterlimit:10;}
	.st6{fill:#FFFFFF;stroke:#0000FF;stroke-width:4.95;stroke-miterlimit:10;}
	.st7{fill:#FFFFFF;stroke:#0000FF;stroke-width:4.4556;stroke-miterlimit:10;}
	.st8{fill:#FFFFFF;stroke:#0000FF;stroke-width:4.1907;stroke-miterlimit:10;}
	.st9{fill:#FFFFFF;stroke:#0000FF;stroke-width:4.4028;stroke-miterlimit:10;}
	.st10{fill:#FFFFFF;stroke:#0000FF;stroke-width:4.8796;stroke-miterlimit:10;}
	.st11{fill:#FFFFFF;stroke:#0000FF;stroke-width:4.9227;stroke-miterlimit:10;}
	.st12{fill:#FFFFFF;stroke:#000000;stroke-width:3.8369;stroke-miterlimit:10;}
	.st13{fill:#FFFFFF;stroke:#000000;stroke-width:3.7419;stroke-miterlimit:10;}
	.st14{fill:#FFFFFF;stroke:#000000;stroke-width:3.6929;stroke-miterlimit:10;}
	.st15{fill:#FFFFFF;stroke:#000000;stroke-width:3.7336;stroke-miterlimit:10;}
	.st16{fill:#FFFFFF;stroke:#0000FF;stroke-width:4.0908;stroke-miterlimit:10;}
	.st17{fill:none;stroke:#0000FF;stroke-width:0.8474;stroke-miterlimit:10;}
	.st18{fill:#FFFFFF;stroke:#0000FF;stroke-width:0.8407;stroke-miterlimit:10;}
	.st19{fill:none;stroke:#0000FF;stroke-width:0.8407;stroke-miterlimit:10;}
	.st20{fill:#231F20;}
	.st21{fill:#FFFFFF;stroke:#0000FF;stroke-width:1.4173;stroke-miterlimit:10;}
	.st22{fill:#FFFFFF;stroke:#0000FF;stroke-miterlimit:10;}
	.st23{fill:#FFFFFF;stroke:#0000FF;stroke-width:1.0078;stroke-miterlimit:10;}
	.st24{fill:#FFFFFF;stroke:#0000FF;stroke-width:1.0314;stroke-miterlimit:10;}
	.st25{fill:#FFFFFF;stroke:#0000FF;stroke-width:1.1331;stroke-miterlimit:10;}
	.st26{fill:none;}
</style>
<g>
	<g>
		<g>
			<g>
				<path class="st17" d="M1681.58,61.42h5.34v5.6h-5.34V61.42z M1681.84,71.6h4.83v25.44h-4.83V71.6z"/>
				<path class="st17" d="M1692.78,84.32c0-8.4,5.09-13.23,11.45-13.23c3.56,0,6.61,1.78,7.89,4.07V61.42h4.83v35.62h-4.83v-3.56
					c-1.27,2.29-4.83,4.07-8.4,4.07C1697.36,97.55,1692.78,92.71,1692.78,84.32z M1704.94,93.48c3.61,0,7.17-3.05,7.17-9.16
					s-3.56-9.16-7.17-9.16h-0.41c-3.87,0-6.92,3.05-6.92,9.16s3.05,9.16,6.92,9.16H1704.94z"/>
				<path class="st17" d="M1723.05,84.27c0-8.8,5.85-13.18,11.86-13.18c6.61,0,10.79,4.58,10.79,11.19v2.8h-17.81
					c0.3,5.8,4.02,8.4,7.12,8.4h0.41c2.49,0,4.88-1.27,5.39-3.97h4.83c-0.92,5.14-5.34,8.04-10.58,8.04
					C1728.75,97.55,1723.05,93.17,1723.05,84.27z M1740.86,81.26c-0.2-4.43-2.85-6.11-5.75-6.11h-0.41c-2.65,0-5.6,1.58-6.51,6.11
					H1740.86z"/>
				<path class="st17" d="M1751.8,71.6h4.83v3.56c1.53-2.29,4.07-4.07,8.14-4.07c5.85,0,9.16,3.56,9.16,8.9v17.05h-4.83V81.01
					c0-3.56-1.53-5.85-5.14-5.85h-0.41c-3.61,0-6.92,2.8-6.92,7.63v14.25h-4.83V71.6z"/>
				<path class="st17" d="M1783.76,91.44V75.77h-5.6V71.6h5.6v-8.24h4.83v8.24h6.11v4.17h-6.11v14.91c0,1.53,0.51,2.04,2.04,2.04
					h4.83v4.33h-6.11C1785.79,97.04,1783.76,95,1783.76,91.44z"/>
				<path class="st17" d="M1815.82,91.44V75.77h-5.6V71.6h5.6v-8.24h4.83v8.24h6.11v4.17h-6.11v14.91c0,1.53,0.51,2.04,2.04,2.04
					h4.83v4.33h-6.11C1817.85,97.04,1815.82,95,1815.82,91.44z"/>
				<path class="st17" d="M1845.23,96.48v4.63c0,3.56-1.78,5.34-5.34,5.34h-8.4v-4.33h7.12c1.53,0,2.04-0.51,2.04-2.04v-3.56
					l-10.69-24.93h5.14l7.94,18.78l7.63-18.78h4.99L1845.23,96.48z"/>
			</g>
		</g>
		<path class="st17" d="M1800.45,61.42h5.34v5.6h-5.34V61.42z M1800.7,71.6h4.83v25.44h-4.83V71.6z"/>
	</g>
	<g>
		<path class="st17" d="M1672.36,77.96l-15.57,6.23l15.57,6.07v5.58l-22.81-9.39v-4.29l22.81-9.39V77.96z"/>
		<path class="st17" d="M1884.76,82.2v4.29l-22.81,9.39v-5.21l15.57-6.23l-15.57-6.07v-5.58L1884.76,82.2z"/>
	</g>
	<g>
		<path class="st17" d="M1672.36,77.96l-15.57,6.23l15.57,6.07v5.58l-22.81-9.39v-4.29l22.81-9.39V77.96z"/>
		<path class="st17" d="M1884.76,82.2v4.29l-22.81,9.39v-5.21l15.57-6.23l-15.57-6.07v-5.58L1884.76,82.2z"/>
	</g>
</g>
</svg>
