<?xml version="1.0" encoding="utf-8"?>
<!-- Generator: Adobe Illustrator 23.0.1, SVG Export Plug-In . SVG Version: 6.00 Build 0)  -->
<svg version="1.1" id="Layer_1" xmlns="http://www.w3.org/2000/svg" xmlns:xlink="http://www.w3.org/1999/xlink" x="0px" y="0px"
	 viewBox="0 0 1920 1200" style="enable-background:new 0 0 1920 1200;" xml:space="preserve">
<style type="text/css">
	.st0{fill:#FFFFFF;stroke:#0000FF;stroke-width:1.7424;stroke-miterlimit:10;}
	.st1{fill:#FFFFFF;stroke:#0000FF;stroke-width:1.7953;stroke-miterlimit:10;}
	.st2{fill:#0000FF;}
	.st3{fill:#FFFFFF;stroke:#000000;stroke-width:3.7011;stroke-miterlimit:10;}
	.st4{fill:#FFFFFF;stroke:#0000FF;stroke-width:4.8155;stroke-miterlimit:10;}
	.st5{fill:none;stroke:#0000FF;stroke-width:4.252;stroke-miterlimit:10;}
	.st6{fill:#FFFFFF;stroke:#0000FF;stroke-width:4.252;stroke-miterlimit:10;}
	.st7{fill:#FFFFFF;stroke:#0000FF;stroke-width:4.457;stroke-miterlimit:10;}
	.st8{fill:#FFFFFF;stroke:#0000FF;stroke-width:4.95;stroke-miterlimit:10;}
	.st9{fill:#FFFFFF;stroke:#0000FF;stroke-width:4.4556;stroke-miterlimit:10;}
	.st10{fill:#FFFFFF;stroke:#0000FF;stroke-width:4.1907;stroke-miterlimit:10;}
	.st11{fill:#FFFFFF;stroke:#0000FF;stroke-width:4.4028;stroke-miterlimit:10;}
	.st12{fill:#FFFFFF;stroke:#0000FF;stroke-width:4.8796;stroke-miterlimit:10;}
	.st13{fill:#FFFFFF;stroke:#0000FF;stroke-width:4.9227;stroke-miterlimit:10;}
	.st14{fill:#FFFFFF;stroke:#000000;stroke-width:3.8369;stroke-miterlimit:10;}
	.st15{fill:#FFFFFF;stroke:#000000;stroke-width:3.7419;stroke-miterlimit:10;}
	.st16{fill:#FFFFFF;stroke:#000000;stroke-width:3.6929;stroke-miterlimit:10;}
	.st17{fill:#FFFFFF;stroke:#000000;stroke-width:3.7336;stroke-miterlimit:10;}
	.st18{fill:#FFFFFF;stroke:#0000FF;stroke-width:4.0908;stroke-miterlimit:10;}
	.st19{fill:none;stroke:#0000FF;stroke-width:0.8474;stroke-miterlimit:10;}
	.st20{fill:#FFFFFF;stroke:#0000FF;stroke-width:0.8407;stroke-miterlimit:10;}
	.st21{fill:none;stroke:#0000FF;stroke-width:0.8407;stroke-miterlimit:10;}
	.st22{fill:#231F20;}
	.st23{fill:#FFFFFF;stroke:#0000FF;stroke-width:1.4173;stroke-miterlimit:10;}
	.st24{fill:#FFFFFF;stroke:#0000FF;stroke-miterlimit:10;}
	.st25{fill:#FFFFFF;stroke:#0000FF;stroke-width:1.0078;stroke-miterlimit:10;}
	.st26{fill:#FFFFFF;stroke:#0000FF;stroke-width:1.0314;stroke-miterlimit:10;}
	.st27{fill:#FFFFFF;stroke:#0000FF;stroke-width:1.1331;stroke-miterlimit:10;}
	.st28{fill:none;}
	.st29{fill:none;stroke:#0000FF;stroke-miterlimit:10;}
	.st30{fill:#FFFFFF;stroke:#0000FF;stroke-width:0.856;stroke-miterlimit:10;}
	.st31{fill:#FFFFFF;stroke:#0000FF;stroke-width:0.8723;stroke-miterlimit:10;}
	.st32{fill:#FFFFFF;stroke:#0000FF;stroke-width:0.8524;stroke-miterlimit:10;}
	.st33{fill:#FFFFFF;stroke:#0000FF;stroke-width:0.9172;stroke-miterlimit:10;}
	.st34{fill:#FFFFFF;stroke:#0000FF;stroke-width:0.9162;stroke-miterlimit:10;}
	.st35{fill:#FFFFFF;stroke:#0000FF;stroke-width:0.9746;stroke-miterlimit:10;}
	.st36{fill:#FFFFFF;stroke:#0000FF;stroke-width:1.6561;stroke-miterlimit:10;}
	.st37{fill:#0000FF;stroke:#FFFFFF;stroke-miterlimit:10;}
</style>
<g>
	<rect x="110.23" y="70.51" class="st20" width="69.06" height="39.8"/>
	<rect x="165.44" y="96.07" class="st20" width="8.88" height="7.58"/>
</g>
<g>
	<rect x="64.06" y="70.18" class="st21" width="18.56" height="40.92"/>
</g>
<path class="st22" d="M141.31,98.36c-0.26-1.31-0.26-3.92-0.26-4.18c-1.04,2.35-4.18,4.7-8.36,4.7c-4.96,0-8.62-3.29-8.62-7.73
	c0-5.95,5.28-7.73,9.51-8.1l7.21-0.57v-0.84c0-3.66-2.09-5.75-5.43-5.75h-0.42c-2.72,0-5.07,1.31-5.38,3.92h-4.96
	c0.31-4.81,4.65-8.1,10.55-8.1c6.95,0,10.6,4.6,10.6,9.92v10.97c0,1.57,0,3.92,0.26,5.75H141.31z M140.78,88.96V86.3l-6.53,0.52
	c-3.03,0.26-5.22,1.72-5.22,4.13c0,2.14,1.78,3.76,4.23,3.76h0.42C136.87,94.71,140.78,92.1,140.78,88.96z"/>
<g>
	<rect x="76.24" y="66.15" class="st20" width="18.98" height="12.8"/>
</g>
<g>
	<rect x="93.18" y="45.37" class="st20" width="34.87" height="41.41"/>
</g>
<g>
	<path class="st2" d="M99.74,51.9l2.38-2.37l0.69,0.69l-2.38,2.37l2.38,2.38l-0.69,0.69l-2.38-2.38l-2.37,2.38l-0.69-0.69l2.37-2.38
		l-2.37-2.37l0.69-0.69L99.74,51.9z"/>
</g>
<g>
	<path class="st22" d="M61.82,78.78l-15.15,6.06l15.15,5.9v5.43l-22.2-9.14v-4.18l22.2-9.14V78.78z"/>
	<path class="st22" d="M67.25,90.27h4.96c0.31,2.92,2.72,4.44,5.8,4.44h0.42c2.72,0,4.86-1.31,4.86-3.39c0-1.67-0.94-2.82-3.55-3.34
		l-3.81-0.73c-4.23-0.84-7.63-3.03-7.63-7.47c0-5.22,4.65-8.04,9.87-8.04c6.84,0,10.34,3.66,10.34,8.62h-4.96
		c-0.26-2.35-1.93-4.44-5.12-4.44h-0.42c-2.92,0-4.75,1.51-4.75,3.34c0,1.57,1.04,2.82,3.66,3.34l4.13,0.84
		c3.97,0.78,7.21,2.92,7.21,7.63c0,4.7-4.23,7.83-10.29,7.83C71.01,98.89,67.51,95.23,67.25,90.27z"/>
	<path class="st22" d="M94.72,72.25h4.96v3.66c1.31-2.35,4.96-4.18,8.62-4.18c6.53,0,11.23,4.96,11.23,13.58
		s-5.22,13.58-11.75,13.58c-3.66,0-6.79-1.83-8.1-4.18v14.1h-4.96V72.25z M107.46,94.71c3.97,0,7.1-3.13,7.1-9.4
		c0-6.27-3.13-9.4-7.1-9.4h-0.42c-3.71,0-7.36,3.13-7.36,9.4c0,6.27,3.66,9.4,7.36,9.4H107.46z"/>
	<path class="st22" d="M153.32,72.25h4.96v3.66c1.57-2.35,4.18-4.18,8.36-4.18c6.01,0,9.4,3.66,9.4,9.14v17.5h-4.96V81.91
		c0-3.66-1.57-6.01-5.28-6.01h-0.42c-3.71,0-7.1,2.87-7.1,7.83v14.62h-4.96V72.25z"/>
	<path class="st22" d="M205.44,82.9v4.18l-22.2,9.14v-5.07l15.15-6.06l-15.15-5.9v-5.43L205.44,82.9z"/>
</g>
<g>
	<path class="st2" d="M85.43,69.17c0-0.5,0.35-0.86,0.82-0.86c0.5,0,0.82,0.36,0.82,0.86c0,0.49-0.32,0.86-0.82,0.86
		C85.76,70.03,85.43,69.65,85.43,69.17z M85.77,67.19l-0.19-6.65h1.33l-0.19,6.65H85.77z"/>
</g>
<g>
	<g>
		<path class="st2" d="M71.08,108l0.03,0.36c0.08,0.75-0.17,1.57-0.86,2.4c-0.62,0.73-0.97,1.28-0.97,1.9
			c0,0.71,0.44,1.18,1.32,1.19c0.5,0,1.05-0.17,1.4-0.43l0.33,0.87c-0.46,0.33-1.25,0.55-1.98,0.55c-1.59,0-2.31-0.98-2.31-2.04
			c0-0.94,0.53-1.62,1.19-2.41c0.61-0.72,0.83-1.33,0.79-2.04L70,108H71.08z M71.39,106.06c0,0.51-0.35,0.87-0.83,0.87
			c-0.48,0-0.82-0.36-0.82-0.87c0-0.49,0.32-0.86,0.83-0.86C71.05,105.2,71.39,105.57,71.39,106.06z"/>
	</g>
</g>
</svg>
