<?xml version="1.0" encoding="UTF-8"?>
<svg width="168px" height="70px" viewBox="0 0 168 70" version="1.1" xmlns="http://www.w3.org/2000/svg" xmlns:xlink="http://www.w3.org/1999/xlink">
    <!-- Generator: Sketch 51.3 (57544) - http://www.bohemiancoding.com/sketch -->
    <title>Artboard Copy 3</title>
    <desc>Created with Sketch.</desc>
    <defs></defs>
    <g id="Artboard-Copy-3" stroke="none" stroke-width="1" fill="none" fill-rule="evenodd">
        <g id="span" transform="translate(1.000000, 0.000000)">
            <g id="Group" transform="translate(71.000000, 25.000000)" fill="#FFFFFF" fill-rule="nonzero" stroke="#0000FF" stroke-width="0.8407">
                <rect id="Rectangle-path" x="0.23" y="0.51" width="69.06" height="39.8"></rect>
                <rect id="Rectangle-path" x="55.44" y="26.07" width="8.88" height="7.58"></rect>
            </g>
            <rect id="Rectangle-path" stroke="#0000FF" stroke-width="0.8407" x="25.06" y="25.18" width="18.56" height="40.92"></rect>
            <path d="M102.31,53.36 C102.05,52.05 102.05,49.44 102.05,49.18 C101.01,51.53 97.87,53.88 93.69,53.88 C88.73,53.88 85.07,50.59 85.07,46.15 C85.07,40.2 90.35,38.42 94.58,38.05 L101.79,37.48 L101.79,36.64 C101.79,32.98 99.7,30.89 96.36,30.89 L95.94,30.89 C93.22,30.89 90.87,32.2 90.56,34.81 L85.6,34.81 C85.91,30 90.25,26.71 96.15,26.71 C103.1,26.71 106.75,31.31 106.75,36.63 L106.75,47.6 C106.75,49.17 106.75,51.52 107.01,53.35 L102.31,53.35 L102.31,53.36 Z M101.78,43.96 L101.78,41.3 L95.25,41.82 C92.22,42.08 90.03,43.54 90.03,45.95 C90.03,48.09 91.81,49.71 94.26,49.71 L94.68,49.71 C97.87,49.71 101.78,47.1 101.78,43.96 Z" id="Shape" fill="#231F20" fill-rule="nonzero"></path>
            <rect id="Rectangle-path" stroke="#0000FF" stroke-width="0.8407" fill="#FFFFFF" fill-rule="nonzero" x="37.24" y="21.15" width="18.98" height="12.8"></rect>
            <rect id="Rectangle-path" stroke="#0000FF" stroke-width="0.8407" fill="#FFFFFF" fill-rule="nonzero" x="54.18" y="0.37" width="34.87" height="41.41"></rect>
            <polygon id="Shape" fill="#0000FF" fill-rule="nonzero" points="60.74 6.9 63.12 4.53 63.81 5.22 61.43 7.59 63.81 9.97 63.12 10.66 60.74 8.28 58.37 10.66 57.68 9.97 60.05 7.59 57.68 5.22 58.37 4.53"></polygon>
            <g id="Group" transform="translate(0.000000, 26.000000)" fill="#231F20" fill-rule="nonzero">
                <polygon id="Shape" points="22.82 7.78 7.67 13.84 22.82 19.74 22.82 25.17 0.62 16.03 0.62 11.85 22.82 2.71"></polygon>
                <path d="M28.25,19.27 L33.21,19.27 C33.52,22.19 35.93,23.71 39.01,23.71 L39.43,23.71 C42.15,23.71 44.29,22.4 44.29,20.32 C44.29,18.65 43.35,17.5 40.74,16.98 L36.93,16.25 C32.7,15.41 29.3,13.22 29.3,8.78 C29.3,3.56 33.95,0.74 39.17,0.74 C46.01,0.74 49.51,4.4 49.51,9.36 L44.55,9.36 C44.29,7.01 42.62,4.92 39.43,4.92 L39.01,4.92 C36.09,4.92 34.26,6.43 34.26,8.26 C34.26,9.83 35.3,11.08 37.92,11.6 L42.05,12.44 C46.02,13.22 49.26,15.36 49.26,20.07 C49.26,24.77 45.03,27.9 38.97,27.9 C32.01,27.89 28.51,24.23 28.25,19.27 Z" id="Shape"></path>
                <path d="M55.72,1.25 L60.68,1.25 L60.68,4.91 C61.99,2.56 65.64,0.73 69.3,0.73 C75.83,0.73 80.53,5.69 80.53,14.31 C80.53,22.93 75.31,27.89 68.78,27.89 C65.12,27.89 61.99,26.06 60.68,23.71 L60.68,37.81 L55.72,37.81 L55.72,1.25 Z M68.46,23.71 C72.43,23.71 75.56,20.58 75.56,14.31 C75.56,8.04 72.43,4.91 68.46,4.91 L68.04,4.91 C64.33,4.91 60.68,8.04 60.68,14.31 C60.68,20.58 64.34,23.71 68.04,23.71 L68.46,23.71 Z" id="Shape"></path>
                <path d="M114.32,1.25 L119.28,1.25 L119.28,4.91 C120.85,2.56 123.46,0.73 127.64,0.73 C133.65,0.73 137.04,4.39 137.04,9.87 L137.04,27.37 L132.08,27.37 L132.08,10.91 C132.08,7.25 130.51,4.9 126.8,4.9 L126.38,4.9 C122.67,4.9 119.28,7.77 119.28,12.73 L119.28,27.35 L114.32,27.35 L114.32,1.25 Z" id="Shape"></path>
                <polygon id="Shape" points="166.44 11.9 166.44 16.08 144.24 25.22 144.24 20.15 159.39 14.09 144.24 8.19 144.24 2.76"></polygon>
            </g>
            <path d="M46.43,24.17 C46.43,23.67 46.78,23.31 47.25,23.31 C47.75,23.31 48.07,23.67 48.07,24.17 C48.07,24.66 47.75,25.03 47.25,25.03 C46.76,25.03 46.43,24.65 46.43,24.17 Z M46.77,22.19 L46.58,15.54 L47.91,15.54 L47.72,22.19 L46.77,22.19 Z" id="Shape" fill="#0000FF" fill-rule="nonzero"></path>
            <path d="M32.08,63 L32.11,63.36 C32.19,64.11 31.94,64.93 31.25,65.76 C30.63,66.49 30.28,67.04 30.28,67.66 C30.28,68.37 30.72,68.84 31.6,68.85 C32.1,68.85 32.65,68.68 33,68.42 L33.33,69.29 C32.87,69.62 32.08,69.84 31.35,69.84 C29.76,69.84 29.04,68.86 29.04,67.8 C29.04,66.86 29.57,66.18 30.23,65.39 C30.84,64.67 31.06,64.06 31.02,63.35 L31,63 L32.08,63 Z M32.39,61.06 C32.39,61.57 32.04,61.93 31.56,61.93 C31.08,61.93 30.74,61.57 30.74,61.06 C30.74,60.57 31.06,60.2 31.57,60.2 C32.05,60.2 32.39,60.57 32.39,61.06 Z" id="Shape" fill="#0000FF" fill-rule="nonzero"></path>
        </g>
    </g>
</svg>