<?xml version="1.0" encoding="UTF-8"?>
<svg width="332px" height="70px" viewBox="0 0 332 70" version="1.1" xmlns="http://www.w3.org/2000/svg" xmlns:xlink="http://www.w3.org/1999/xlink">
    <!-- Generator: Sketch 51.3 (57544) - http://www.bohemiancoding.com/sketch -->
    <title>Artboard Copy 2</title>
    <desc>Created with Sketch.</desc>
    <defs></defs>
    <g id="Artboard-Copy-2" stroke="none" stroke-width="1" fill="none" fill-rule="evenodd">
        <g id="sur_act" transform="translate(1.000000, 4.000000)" fill-rule="nonzero">
            <path d="M249.53,36.07 C249.53,28.67 253.86,22.98 261.61,22.98 C267.34,22.98 271.42,26.35 271.92,31.79 L267.14,31.79 C266.852692,29.0652419 264.549846,27.0000253 261.81,27.01 L261.41,27.01 C256.57,27.01 254.31,31.29 254.31,36.07 C254.31,40.85 256.57,45.13 261.41,45.13 L261.81,45.13 C264.549846,45.1399747 266.852692,43.0747581 267.14,40.35 L271.92,40.35 C271.42,45.78 267.34,49.15 261.61,49.15 C253.86,49.15 249.53,43.47 249.53,36.07 Z" id="Shape" fill="#0000FF"></path>
            <path d="M31.9,40.85 L36.68,40.85 C36.99,43.67 39.3,45.13 42.27,45.13 L42.67,45.13 C45.29,45.13 47.35,43.87 47.35,41.85 C47.35,40.24 46.45,39.14 43.93,38.63 L40.26,37.93 C36.18,37.12 32.91,35.01 32.91,30.73 C32.91,25.73 37.39,22.98 42.42,22.98 C49.01,22.98 52.42,26.5 52.42,31.29 L47.63,31.29 C47.4380379,28.7529756 45.2388377,26.8437308 42.7,27.01 L42.3,27.01 C39.48,27.01 37.72,28.47 37.72,30.23 C37.72,31.74 38.72,32.95 41.24,33.45 L45.24,34.25 C49.06,35.01 52.18,37.07 52.18,41.6 C52.18,46.13 48.11,49.15 42.27,49.15 C35.53,49.15 32.15,45.63 31.9,40.85 Z" id="Shape" fill="#0000FF"></path>
            <path d="M58.12,40.09 L58.12,23.48 L62.91,23.48 L62.91,39.09 C62.91,43.09 64.57,45.09 67.99,45.09 L68.39,45.09 C71.61,45.09 74.73,42.09 74.73,37.03 L74.73,23.48 L79.51,23.48 L79.51,48.65 L74.73,48.65 L74.73,43.87 C73.73,46.64 71.06,49.15 66.73,49.15 C61,49.15 58.12,45.38 58.12,40.09 Z" id="Shape" fill="#0000FF"></path>
            <path d="M87.06,23.48 L91.59,23.48 L91.59,29 C92.3673619,25.5987441 95.4010849,23.1925446 98.89,23.21 L101.16,23.2099056 L101.16,27.84 L99.16,27.84 C94.63,27.84 91.87,30.84 91.87,35.9 L91.87,48.65 L87.08,48.65 L87.06,23.48 Z" id="Shape" fill="#0000FF"></path>
            <polygon id="Shape" fill="#0000FF" points="127.43 23.48 118.12 48.65 112.33 48.65 103 23.48 108 23.48 115.3 43.97 122.6 23.48"></polygon>
            <path d="M129.89,36 C129.89,27.29 135.68,23 141.62,23 C148.16,23 152.29,27.53 152.29,34.07 L152.29,36.84 L134.68,36.84 C134.98,42.58 138.68,45.15 141.68,45.15 L142.08,45.15 C144.55,45.15 146.92,43.89 147.42,41.22 L152.2,41.22 C151.29,46.3 146.92,49.22 141.73,49.22 C135.53,49.15 129.89,44.82 129.89,36 Z M147.51,33 C147.31,28.62 144.69,27 141.82,27 L141.42,27 C138.8,27 135.88,28.56 134.98,33 L147.51,33 Z" id="Shape" fill="#0000FF"></path>
            <path d="M158.08,13.42 L163.36,13.42 L163.36,19 L158.08,19 L158.08,13.42 Z M158.33,23.48 L163.11,23.48 L163.11,48.65 L158.33,48.65 L158.33,23.48 Z" id="Shape" fill="#0000FF"></path>
            <polygon id="Shape" fill="#0000FF" points="170.66 13.42 175.44 13.42 175.44 48.65 170.66 48.65"></polygon>
            <polygon id="Shape" fill="#0000FF" points="183 13.42 187.78 13.42 187.78 48.65 183 48.65"></polygon>
            <path d="M210.27,48.65 C210.091398,47.3243332 210.007851,45.9875887 210.02,44.65 C209.02,46.92 206.02,49.18 202.02,49.18 C197.23,49.18 193.71,46.01 193.71,41.73 C193.71,36 198.8,34.28 202.87,33.93 L209.87,33.38 L209.87,32.57 C209.87,29.05 207.87,27.04 204.63,27.04 L204.23,27.04 C201.61,27.04 199.35,28.3 199.05,30.81 L194.26,30.81 C194.57,26.18 198.74,23.01 204.43,23.01 C211.13,23.01 214.65,27.44 214.65,32.57 L214.65,43.11 C214.614042,44.9601222 214.697549,46.8106363 214.9,48.65 L210.27,48.65 Z M209.77,39.59 L209.77,37 L203.48,37.51 C200.56,37.76 198.48,39.17 198.48,41.51 C198.48,43.58 200.19,45.14 202.56,45.14 L202.96,45.14 C206,45.13 209.77,42.61 209.77,39.59 Z" id="Shape" fill="#0000FF"></path>
            <path d="M221.85,23.48 L226.63,23.48 L226.63,27 C228.408136,24.353101 231.445599,22.8343694 234.63,23 C240.42,23 243.69,26.52 243.69,31.81 L243.69,48.65 L239,48.65 L239,32.8 C239,29.27 237.49,27.01 233.92,27.01 L233.51,27.01 C229.94,27.01 226.67,29.78 226.67,34.56 L226.67,48.65 L221.89,48.65 L221.85,23.48 Z" id="Shape" fill="#0000FF"></path>
            <path d="M276.3,36 C276.3,27.29 282.09,23 288.03,23 C294.57,23 298.7,27.53 298.7,34.07 L298.7,36.84 L281.08,36.84 C281.39,42.58 285.08,45.15 288.13,45.15 L288.53,45.15 C291,45.15 293.36,43.89 293.87,41.22 L298.65,41.22 C297.74,46.3 293.36,49.22 288.18,49.22 C281.94,49.15 276.3,44.82 276.3,36 Z M293.92,33 C293.72,28.62 291.1,27 288.23,27 L287.83,27 C285.21,27 282.29,28.56 281.39,33 L293.92,33 Z" id="Shape" fill="#0000FF"></path>
            <path d="M249.53,36.07 C249.53,28.67 253.86,22.98 261.61,22.98 C267.34,22.98 271.42,26.35 271.92,31.79 L267.14,31.79 C266.852692,29.0652419 264.549846,27.0000253 261.81,27.01 L261.41,27.01 C256.57,27.01 254.31,31.29 254.31,36.07 C254.31,40.85 256.57,45.13 261.41,45.13 L261.81,45.13 C264.549846,45.1399747 266.852692,43.0747581 267.14,40.35 L271.92,40.35 C271.42,45.78 267.34,49.15 261.61,49.15 C253.86,49.15 249.53,43.47 249.53,36.07 Z" id="Shape" fill="#0000FF"></path>
            <path d="M31.9,40.85 L36.68,40.85 C36.99,43.67 39.3,45.13 42.27,45.13 L42.67,45.13 C45.29,45.13 47.35,43.87 47.35,41.85 C47.35,40.24 46.45,39.14 43.93,38.63 L40.26,37.93 C36.18,37.12 32.91,35.01 32.91,30.73 C32.91,25.73 37.39,22.98 42.42,22.98 C49.01,22.98 52.42,26.5 52.42,31.29 L47.63,31.29 C47.4380379,28.7529756 45.2388377,26.8437308 42.7,27.01 L42.3,27.01 C39.48,27.01 37.72,28.47 37.72,30.23 C37.72,31.74 38.72,32.95 41.24,33.45 L45.24,34.25 C49.06,35.01 52.18,37.07 52.18,41.6 C52.18,46.13 48.11,49.15 42.27,49.15 C35.53,49.15 32.15,45.63 31.9,40.85 Z" id="Shape" fill="#0000FF"></path>
            <path d="M58.12,40.09 L58.12,23.48 L62.91,23.48 L62.91,39.09 C62.91,43.09 64.57,45.09 67.99,45.09 L68.39,45.09 C71.61,45.09 74.73,42.09 74.73,37.03 L74.73,23.48 L79.51,23.48 L79.51,48.65 L74.73,48.65 L74.73,43.87 C73.73,46.64 71.06,49.15 66.73,49.15 C61,49.15 58.12,45.38 58.12,40.09 Z" id="Shape" fill="#0000FF"></path>
            <path d="M87.06,23.48 L91.59,23.48 L91.59,29 C92.3673619,25.5987441 95.4010849,23.1925446 98.89,23.21 L101.16,23.2099056 L101.16,27.84 L99.16,27.84 C94.63,27.84 91.87,30.84 91.87,35.9 L91.87,48.65 L87.08,48.65 L87.06,23.48 Z" id="Shape" fill="#0000FF"></path>
            <polygon id="Shape" fill="#0000FF" points="127.43 23.48 118.12 48.65 112.33 48.65 103 23.48 108 23.48 115.3 43.97 122.6 23.48"></polygon>
            <path d="M129.89,36 C129.89,27.29 135.68,23 141.62,23 C148.16,23 152.29,27.53 152.29,34.07 L152.29,36.84 L134.68,36.84 C134.98,42.58 138.68,45.15 141.68,45.15 L142.08,45.15 C144.55,45.15 146.92,43.89 147.42,41.22 L152.2,41.22 C151.29,46.3 146.92,49.22 141.73,49.22 C135.53,49.15 129.89,44.82 129.89,36 Z M147.51,33 C147.31,28.62 144.69,27 141.82,27 L141.42,27 C138.8,27 135.88,28.56 134.98,33 L147.51,33 Z" id="Shape" fill="#0000FF"></path>
            <path d="M158.08,13.42 L163.36,13.42 L163.36,19 L158.08,19 L158.08,13.42 Z M158.33,23.48 L163.11,23.48 L163.11,48.65 L158.33,48.65 L158.33,23.48 Z" id="Shape" fill="#0000FF"></path>
            <polygon id="Shape" fill="#0000FF" points="170.66 13.42 175.44 13.42 175.44 48.65 170.66 48.65"></polygon>
            <polygon id="Shape" fill="#0000FF" points="183 13.42 187.78 13.42 187.78 48.65 183 48.65"></polygon>
            <path d="M210.27,48.65 C210.091398,47.3243332 210.007851,45.9875887 210.02,44.65 C209.02,46.92 206.02,49.18 202.02,49.18 C197.23,49.18 193.71,46.01 193.71,41.73 C193.71,36 198.8,34.28 202.87,33.93 L209.87,33.38 L209.87,32.57 C209.87,29.05 207.87,27.04 204.63,27.04 L204.23,27.04 C201.61,27.04 199.35,28.3 199.05,30.81 L194.26,30.81 C194.57,26.18 198.74,23.01 204.43,23.01 C211.13,23.01 214.65,27.44 214.65,32.57 L214.65,43.11 C214.614042,44.9601222 214.697549,46.8106363 214.9,48.65 L210.27,48.65 Z M209.77,39.59 L209.77,37 L203.48,37.51 C200.56,37.76 198.48,39.17 198.48,41.51 C198.48,43.58 200.19,45.14 202.56,45.14 L202.96,45.14 C206,45.13 209.77,42.61 209.77,39.59 Z" id="Shape" fill="#0000FF"></path>
            <path d="M221.85,23.48 L226.63,23.48 L226.63,27 C228.408136,24.353101 231.445599,22.8343694 234.63,23 C240.42,23 243.69,26.52 243.69,31.81 L243.69,48.65 L239,48.65 L239,32.8 C239,29.27 237.49,27.01 233.92,27.01 L233.51,27.01 C229.94,27.01 226.67,29.78 226.67,34.56 L226.67,48.65 L221.89,48.65 L221.85,23.48 Z" id="Shape" fill="#0000FF"></path>
            <path d="M276.3,36 C276.3,27.29 282.09,23 288.03,23 C294.57,23 298.7,27.53 298.7,34.07 L298.7,36.84 L281.08,36.84 C281.39,42.58 285.08,45.15 288.13,45.15 L288.53,45.15 C291,45.15 293.36,43.89 293.87,41.22 L298.65,41.22 C297.74,46.3 293.36,49.22 288.18,49.22 C281.94,49.15 276.3,44.82 276.3,36 Z M293.92,33 C293.72,28.62 291.1,27 288.23,27 L287.83,27 C285.21,27 282.29,28.56 281.39,33 L293.92,33 Z" id="Shape" fill="#0000FF"></path>
            <polygon id="Shape" fill="#0000FF" points="23 29.76 7.41 36 23 42.05 23 47.63 0.19 38.24 0.19 34 23 24.6"></polygon>
            <polygon id="Shape" fill="#0000FF" points="330.81 34 330.81 38.29 308 47.69 308 42.48 323.57 36.25 308 30.19 308 24.61"></polygon>
            <rect id="Rectangle-path" stroke="#0000FF" stroke-width="0.84" fill="#FFFFFF" transform="translate(202.475000, 18.325000) rotate(-90.000000) translate(-202.475000, -18.325000) " x="185.04" y="-2.38" width="34.87" height="41.41"></rect>
            <rect id="Rectangle-path" stroke="#0000FF" stroke-width="0.84" fill="#FFFFFF" x="204.44" y="17.07" width="8.88" height="7.58"></rect>
        </g>
    </g>
</svg>