<svg id="Layer_1" data-name="Layer 1" xmlns="http://www.w3.org/2000/svg" viewBox="0 0 1920 1200"><defs><style>.cls-1{fill:blue;}.cls-2{fill:#fff;stroke:blue;stroke-miterlimit:10;stroke-width:0.84px;}</style></defs><title>studio-web-2</title><path class="cls-1" d="M1247.53,84.07c0-7.4,4.33-13.09,12.08-13.09,5.73,0,9.81,3.37,10.31,8.81h-4.78a5.34,5.34,0,0,0-5.33-4.78h-.4c-4.84,0-7.1,4.28-7.1,9.06s2.26,9.06,7.1,9.06h.4a5.34,5.34,0,0,0,5.33-4.78h4.78c-.5,5.43-4.58,8.8-10.31,8.8C1251.86,97.15,1247.53,91.47,1247.53,84.07Z"/><path class="cls-1" d="M1029.9,88.85h4.78c.31,2.82,2.62,4.28,5.59,4.28h.4c2.62,0,4.68-1.26,4.68-3.28,0-1.61-.9-2.71-3.42-3.22l-3.67-.7c-4.08-.81-7.35-2.92-7.35-7.2,0-5,4.48-7.75,9.51-7.75,6.59,0,10,3.52,10,8.31h-4.79a4.64,4.64,0,0,0-4.93-4.28h-.4c-2.82,0-4.58,1.46-4.58,3.22,0,1.51,1,2.72,3.52,3.22l4,.8c3.82.76,6.94,2.82,6.94,7.35s-4.07,7.55-9.91,7.55C1033.53,97.15,1030.15,93.63,1029.9,88.85Z"/><path class="cls-1" d="M1056.12,88.09V71.48h4.79V87.09c0,4,1.66,6,5.08,6h.4c3.22,0,6.34-3,6.34-8.06V71.48h4.78V96.65h-4.78V91.87c-1,2.77-3.67,5.28-8,5.28C1059,97.15,1056.12,93.38,1056.12,88.09Z"/><path class="cls-1" d="M1085.06,71.48h4.53V77a7.45,7.45,0,0,1,7.3-5.79h2.27v4.63h-2c-4.53,0-7.29,3-7.29,8.06V96.65h-4.79Z"/><path class="cls-1" d="M1125.43,71.48l-9.31,25.17h-5.79L1101,71.48H1106l7.3,20.49,7.3-20.49Z"/><path class="cls-1" d="M1127.89,84c0-8.71,5.79-13,11.73-13,6.54,0,10.67,4.53,10.67,11.07v2.77h-17.61c.3,5.74,4,8.31,7,8.31h.4c2.47,0,4.84-1.26,5.34-3.93h4.78c-.91,5.08-5.28,8-10.47,8C1133.53,97.15,1127.89,92.82,1127.89,84Zm17.62-3c-.2-4.38-2.82-6-5.69-6h-.4c-2.62,0-5.54,1.56-6.44,6Z"/><path class="cls-1" d="M1156.08,61.42h5.28V67h-5.28Zm.25,10.06h4.78V96.65h-4.78Z"/><path class="cls-1" d="M1168.66,61.42h4.78V96.65h-4.78Z"/><path class="cls-1" d="M1181,61.42h4.78V96.65H1181Z"/><path class="cls-1" d="M1208.27,96.65a28.05,28.05,0,0,1-.25-4c-1,2.27-4,4.53-8,4.53-4.79,0-8.31-3.17-8.31-7.45,0-5.73,5.09-7.45,9.16-7.8l7-.55v-.81c0-3.52-2-5.53-5.24-5.53h-.4c-2.62,0-4.88,1.26-5.18,3.77h-4.79c.31-4.63,4.48-7.8,10.17-7.8,6.7,0,10.22,4.43,10.22,9.56V91.11a43,43,0,0,0,.25,5.54Zm-.5-9.06V85l-6.29.51c-2.92.25-5,1.66-5,4,0,2.07,1.71,3.63,4.08,3.63h.4C1204,93.13,1207.77,90.61,1207.77,87.59Z"/><path class="cls-1" d="M1219.85,71.48h4.78V75a9.07,9.07,0,0,1,8-4c5.79,0,9.06,3.52,9.06,8.81V96.65H1237V80.8c0-3.53-1.51-5.79-5.08-5.79h-.41c-3.57,0-6.84,2.77-6.84,7.55V96.65h-4.78Z"/><path class="cls-1" d="M1274.3,84c0-8.71,5.79-13,11.73-13,6.54,0,10.67,4.53,10.67,11.07v2.77h-17.62c.31,5.74,4,8.31,7.05,8.31h.4c2.47,0,4.83-1.26,5.34-3.93h4.78c-.91,5.08-5.29,8-10.47,8C1279.94,97.15,1274.3,92.82,1274.3,84Zm17.62-3c-.2-4.38-2.82-6-5.69-6h-.4c-2.62,0-5.54,1.56-6.44,6Z"/><path class="cls-1" d="M1247.53,84.07c0-7.4,4.33-13.09,12.08-13.09,5.73,0,9.81,3.37,10.31,8.81h-4.78a5.34,5.34,0,0,0-5.33-4.78h-.4c-4.84,0-7.1,4.28-7.1,9.06s2.26,9.06,7.1,9.06h.4a5.34,5.34,0,0,0,5.33-4.78h4.78c-.5,5.43-4.58,8.8-10.31,8.8C1251.86,97.15,1247.53,91.47,1247.53,84.07Z"/><path class="cls-1" d="M1029.9,88.85h4.78c.31,2.82,2.62,4.28,5.59,4.28h.4c2.62,0,4.68-1.26,4.68-3.28,0-1.61-.9-2.71-3.42-3.22l-3.67-.7c-4.08-.81-7.35-2.92-7.35-7.2,0-5,4.48-7.75,9.51-7.75,6.59,0,10,3.52,10,8.31h-4.79a4.64,4.64,0,0,0-4.93-4.28h-.4c-2.82,0-4.58,1.46-4.58,3.22,0,1.51,1,2.72,3.52,3.22l4,.8c3.82.76,6.94,2.82,6.94,7.35s-4.07,7.55-9.91,7.55C1033.53,97.15,1030.15,93.63,1029.9,88.85Z"/><path class="cls-1" d="M1056.12,88.09V71.48h4.79V87.09c0,4,1.66,6,5.08,6h.4c3.22,0,6.34-3,6.34-8.06V71.48h4.78V96.65h-4.78V91.87c-1,2.77-3.67,5.28-8,5.28C1059,97.15,1056.12,93.38,1056.12,88.09Z"/><path class="cls-1" d="M1085.06,71.48h4.53V77a7.45,7.45,0,0,1,7.3-5.79h2.27v4.63h-2c-4.53,0-7.29,3-7.29,8.06V96.65h-4.79Z"/><path class="cls-1" d="M1125.43,71.48l-9.31,25.17h-5.79L1101,71.48H1106l7.3,20.49,7.3-20.49Z"/><path class="cls-1" d="M1127.89,84c0-8.71,5.79-13,11.73-13,6.54,0,10.67,4.53,10.67,11.07v2.77h-17.61c.3,5.74,4,8.31,7,8.31h.4c2.47,0,4.84-1.26,5.34-3.93h4.78c-.91,5.08-5.28,8-10.47,8C1133.53,97.15,1127.89,92.82,1127.89,84Zm17.62-3c-.2-4.38-2.82-6-5.69-6h-.4c-2.62,0-5.54,1.56-6.44,6Z"/><path class="cls-1" d="M1156.08,61.42h5.28V67h-5.28Zm.25,10.06h4.78V96.65h-4.78Z"/><path class="cls-1" d="M1168.66,61.42h4.78V96.65h-4.78Z"/><path class="cls-1" d="M1181,61.42h4.78V96.65H1181Z"/><path class="cls-1" d="M1208.27,96.65a28.05,28.05,0,0,1-.25-4c-1,2.27-4,4.53-8,4.53-4.79,0-8.31-3.17-8.31-7.45,0-5.73,5.09-7.45,9.16-7.8l7-.55v-.81c0-3.52-2-5.53-5.24-5.53h-.4c-2.62,0-4.88,1.26-5.18,3.77h-4.79c.31-4.63,4.48-7.8,10.17-7.8,6.7,0,10.22,4.43,10.22,9.56V91.11a43,43,0,0,0,.25,5.54Zm-.5-9.06V85l-6.29.51c-2.92.25-5,1.66-5,4,0,2.07,1.71,3.63,4.08,3.63h.4C1204,93.13,1207.77,90.61,1207.77,87.59Z"/><path class="cls-1" d="M1219.85,71.48h4.78V75a9.07,9.07,0,0,1,8-4c5.79,0,9.06,3.52,9.06,8.81V96.65H1237V80.8c0-3.53-1.51-5.79-5.08-5.79h-.41c-3.57,0-6.84,2.77-6.84,7.55V96.65h-4.78Z"/><path class="cls-1" d="M1274.3,84c0-8.71,5.79-13,11.73-13,6.54,0,10.67,4.53,10.67,11.07v2.77h-17.62c.31,5.74,4,8.31,7.05,8.31h.4c2.47,0,4.83-1.26,5.34-3.93h4.78c-.91,5.08-5.29,8-10.47,8C1279.94,97.15,1274.3,92.82,1274.3,84Zm17.62-3c-.2-4.38-2.82-6-5.69-6h-.4c-2.62,0-5.54,1.56-6.44,6Z"/><path class="cls-1" d="M1021,77.76,1005.41,84,1021,90.05v5.58l-22.81-9.39V82l22.81-9.4Z"/><path class="cls-1" d="M1328.81,82v4.29L1306,95.69V90.48l15.57-6.23L1306,78.19V72.61Z"/><rect class="cls-2" x="1183.04" y="45.62" width="34.87" height="41.41" transform="translate(1134.15 1266.8) rotate(-90)"/><rect class="cls-2" x="1202.44" y="65.07" width="8.88" height="7.58"/></svg>