<?xml version="1.0" encoding="UTF-8"?>
<svg width="262px" height="70px" viewBox="0 0 262 70" version="1.1" xmlns="http://www.w3.org/2000/svg" xmlns:xlink="http://www.w3.org/1999/xlink">
    <!-- Generator: Sketch 51.3 (57544) - http://www.bohemiancoding.com/sketch -->
    <title>Artboard</title>
    <desc>Created with Sketch.</desc>
    <defs></defs>
    <g id="Artboard" stroke="none" stroke-width="1" fill="none" fill-rule="evenodd">
        <g id="te" transform="translate(1.000000, 17.000000)" stroke="#0000FF" stroke-width="0.85">
            <polygon id="Shape" points="23.41 17.24 7.84 23.46 23.41 29.53 23.41 35.11 0.6 25.72 0.6 21.42 23.41 12"></polygon>
            <polygon id="Shape" points="260.29 21.48 260.29 25.77 237.48 35.17 237.48 30 253 23.73 237.44 17.67 237.44 12.09"></polygon>
            <path d="M153.63,23.9 C153.63,15.81 159.11,10.33 166.15,10.33 C173.19,10.33 178.67,15.81 178.67,23.9 C178.67,31.99 173.2,37.46 166.15,37.46 C159.1,37.46 153.63,32 153.63,23.9 Z M166.36,33.29 C170.59,33.29 173.72,29.9 173.72,23.9 C173.72,17.9 170.59,14.51 166.36,14.51 L165.94,14.51 C161.72,14.51 158.59,17.9 158.59,23.9 C158.59,29.9 161.72,33.29 165.94,33.29 L166.36,33.29 Z" id="Shape"></path>
            <path d="M103,10.85 L107.69,10.85 L107.69,16.59 C108.495912,13.0634169 111.642562,10.5693745 115.26,10.59 L117.61,10.589873 L117.61,15.39 L115.52,15.39 C110.82,15.39 107.95,18.52 107.95,23.74 L107.95,36.94 L102.95,36.94 L103,10.85 Z" id="Shape"></path>
            <path d="M38.37,31.2 L38.37,15.13 L32.63,15.13 L32.63,10.85 L38.37,10.85 L38.37,2.4 L43.37,2.4 L43.37,10.85 L49.63,10.85 L49.63,15.13 L43.37,15.13 L43.37,30.42 C43.37,31.98 43.89,32.51 45.45,32.51 L50.45,32.51 L50.45,36.94 L44.19,36.94 C40.46,36.94 38.37,34.85 38.37,31.2 Z" id="Shape"></path>
            <path d="M53.92,23.85 C53.92,14.85 59.92,10.33 66.08,10.33 C72.86,10.33 77.14,15.03 77.14,21.81 L77.14,24.68 L58.88,24.68 C59.19,30.63 63,33.29 66.18,33.29 L66.6,33.29 C69.16,33.29 71.6,31.98 72.13,29.22 L77.13,29.22 C76.19,34.49 71.65,37.46 66.27,37.46 C59.76,37.46 53.92,33 53.92,23.85 Z M72.18,20.77 C71.97,16.23 69.26,14.51 66.29,14.51 L65.87,14.51 C63.16,14.51 60.13,16.12 59.19,20.77 L72.18,20.77 Z" id="Shape"></path>
            <path d="M83.4,10.85 L88.09,10.85 L88.09,16.59 C88.895912,13.0634169 92.0425621,10.5693745 95.66,10.59 L98,10.589873 L98,15.39 L95.91,15.39 C91.22,15.39 88.35,18.52 88.35,23.74 L88.35,36.94 L83.35,36.94 L83.4,10.85 Z" id="Shape"></path>
            <path d="M184.88,10.85 L189.58,10.85 L189.58,16.59 C190.378346,13.0628377 193.523693,10.5665311 197.14,10.59 L199.49,10.5898359 L199.49,15.39 L197.41,15.39 C192.71,15.39 189.84,18.52 189.84,23.74 L189.84,36.94 L184.84,36.94 L184.88,10.85 Z" id="Shape"></path>
            <path d="M217.28,36.37 L217.28,41.12 C217.28,44.7666667 215.456667,46.59 211.81,46.59 L203.2,46.59 L203.2,42.16 L210.5,42.16 C212.07,42.16 212.59,41.64 212.59,40.07 L212.59,36.42 L201.59,10.85 L206.86,10.85 L215,30.11 L222.83,10.85 L228,10.85 L217.28,36.37 Z" id="Shape"></path>
            <path d="M122.37,0.42 L127.85,0.42 L127.85,6.16 L122.37,6.16 L122.37,0.42 Z M122.64,10.85 L127.59,10.85 L127.59,36.94 L122.64,36.94 L122.64,10.85 Z" id="Shape"></path>
            <path d="M138.13,31.2 L138.13,15.13 L132.39,15.13 L132.39,10.85 L138.13,10.85 L138.13,2.4 L143.13,2.4 L143.13,10.85 L149.39,10.85 L149.39,15.13 L143.13,15.13 L143.13,30.42 C143.13,31.98 143.65,32.51 145.22,32.51 L150.22,32.51 L150.22,36.94 L143.96,36.94 C140.22,36.94 138.13,34.85 138.13,31.2 Z" id="Shape"></path>
        </g>
    </g>
</svg>