<?xml version="1.0" encoding="UTF-8"?>
<svg width="262px" height="70px" viewBox="0 0 262 70" version="1.1" xmlns="http://www.w3.org/2000/svg" xmlns:xlink="http://www.w3.org/1999/xlink">
    <!-- Generator: Sketch 51.3 (57544) - http://www.bohemiancoding.com/sketch -->
    <title>Artboard Copy 5</title>
    <desc>Created with Sketch.</desc>
    <defs></defs>
    <g id="Artboard-Copy-5" stroke="none" stroke-width="1" fill="none" fill-rule="evenodd">
        <g id="te_act" transform="translate(1.000000, 10.000000)" fill-rule="nonzero">
            <polygon id="Shape" fill="#0000FF" points="23.41 24.24 7.84 30.46 23.41 36.53 23.41 42.11 0.6 32.72 0.6 28.42 23.41 19"></polygon>
            <polygon id="Shape" fill="#0000FF" points="260.29 28.48 260.29 32.77 237.48 42.17 237.48 37 253 30.73 237.44 24.67 237.44 19.09"></polygon>
            <path d="M153.63,30.9 C153.63,22.81 159.11,17.33 166.15,17.33 C173.19,17.33 178.67,22.81 178.67,30.9 C178.67,38.99 173.2,44.46 166.15,44.46 C159.1,44.46 153.63,39 153.63,30.9 Z M166.36,40.29 C170.59,40.29 173.72,36.9 173.72,30.9 C173.72,24.9 170.59,21.51 166.36,21.51 L165.94,21.51 C161.72,21.51 158.59,24.9 158.59,30.9 C158.59,36.9 161.72,40.29 165.94,40.29 L166.36,40.29 Z" id="Shape" fill="#0000FF"></path>
            <path d="M103,17.85 L107.69,17.85 L107.69,23.59 C108.495912,20.0634169 111.642562,17.5693745 115.26,17.59 L117.61,17.589873 L117.61,22.39 L115.52,22.39 C110.82,22.39 107.95,25.52 107.95,30.74 L107.95,43.94 L102.95,43.94 L103,17.85 Z" id="Shape" fill="#0000FF"></path>
            <path d="M38.37,38.2 L38.37,22.13 L32.63,22.13 L32.63,17.85 L38.37,17.85 L38.37,9.4 L43.37,9.4 L43.37,17.85 L49.63,17.85 L49.63,22.13 L43.37,22.13 L43.37,37.42 C43.37,38.98 43.89,39.51 45.45,39.51 L50.45,39.51 L50.45,43.94 L44.19,43.94 C40.46,43.94 38.37,41.85 38.37,38.2 Z" id="Shape" fill="#0000FF"></path>
            <path d="M53.92,30.85 C53.92,21.85 59.92,17.33 66.08,17.33 C72.86,17.33 77.14,22.03 77.14,28.81 L77.14,31.68 L58.88,31.68 C59.19,37.63 63,40.29 66.18,40.29 L66.6,40.29 C69.16,40.29 71.6,38.98 72.13,36.22 L77.13,36.22 C76.19,41.49 71.65,44.46 66.27,44.46 C59.76,44.46 53.92,40 53.92,30.85 Z M72.18,27.77 C71.97,23.23 69.26,21.51 66.29,21.51 L65.87,21.51 C63.16,21.51 60.13,23.12 59.19,27.77 L72.18,27.77 Z" id="Shape" fill="#0000FF"></path>
            <path d="M83.4,17.85 L88.09,17.85 L88.09,23.59 C88.895912,20.0634169 92.0425621,17.5693745 95.66,17.59 L98,17.589873 L98,22.39 L95.91,22.39 C91.22,22.39 88.35,25.52 88.35,30.74 L88.35,43.94 L83.35,43.94 L83.4,17.85 Z" id="Shape" fill="#0000FF"></path>
            <path d="M184.88,17.85 L189.58,17.85 L189.58,23.59 C190.378346,20.0628377 193.523693,17.5665311 197.14,17.59 L199.49,17.5898359 L199.49,22.39 L197.41,22.39 C192.71,22.39 189.84,25.52 189.84,30.74 L189.84,43.94 L184.84,43.94 L184.88,17.85 Z" id="Shape" fill="#0000FF"></path>
            <path d="M217.28,43.37 L217.28,48.12 C217.28,51.7666667 215.456667,53.59 211.81,53.59 L203.2,53.59 L203.2,49.16 L210.5,49.16 C212.07,49.16 212.59,48.64 212.59,47.07 L212.59,43.42 L201.59,17.85 L206.86,17.85 L215,37.11 L222.83,17.85 L228,17.85 L217.28,43.37 Z" id="Shape" fill="#0000FF"></path>
            <path d="M122.37,7.42 L127.85,7.42 L127.85,13.16 L122.37,13.16 L122.37,7.42 Z M122.64,17.85 L127.59,17.85 L127.59,43.94 L122.64,43.94 L122.64,17.85 Z" id="Shape" fill="#0000FF"></path>
            <path d="M138.13,38.2 L138.13,22.13 L132.39,22.13 L132.39,17.85 L138.13,17.85 L138.13,9.4 L143.13,9.4 L143.13,17.85 L149.39,17.85 L149.39,22.13 L143.13,22.13 L143.13,37.42 C143.13,38.98 143.65,39.51 145.22,39.51 L150.22,39.51 L150.22,43.94 L143.96,43.94 C140.22,43.94 138.13,41.85 138.13,38.2 Z" id="Shape" fill="#0000FF"></path>
            <rect id="Rectangle-path" stroke="#0000FF" stroke-width="0.84" fill="#FFFFFF" x="73.18" y="0.37" width="34.87" height="41.41"></rect>
            <polygon id="Shape" fill="#0000FF" points="96.74 26.9 99.12 24.54 99.81 25.23 97.43 27.6 99.81 29.98 99.12 30.67 96.74 28.28 94.37 30.67 93.68 29.98 96.05 27.6 93.68 25.23 94.37 24.54"></polygon>
        </g>
    </g>
</svg>