<svg id="Layer_1" data-name="Layer 1" xmlns="http://www.w3.org/2000/svg" viewBox="0 0 1920 1200"><defs><style>.cls-1{fill:none;stroke:blue;stroke-miterlimit:10;stroke-width:0.85px;}</style></defs><title>studio-web-2</title><path class="cls-1" d="M1383.41,78.24l-15.57,6.22,15.57,6.07v5.58l-22.81-9.39v-4.3L1383.41,73Z"/><path class="cls-1" d="M1620.29,82.48v4.29l-22.81,9.4V91L1613,84.73l-15.56-6.06V73.09Z"/><path class="cls-1" d="M1513.63,84.9c0-8.09,5.48-13.57,12.52-13.57s12.52,5.48,12.52,13.57-5.47,13.56-12.52,13.56S1513.63,93,1513.63,84.9Zm12.73,9.39c4.23,0,7.36-3.39,7.36-9.39s-3.13-9.39-7.36-9.39h-.42c-4.22,0-7.35,3.39-7.35,9.39s3.13,9.39,7.35,9.39Z"/><path class="cls-1" d="M1463,71.85h4.69v5.74a7.72,7.72,0,0,1,7.57-6h2.35v4.8h-2.09c-4.7,0-7.57,3.13-7.57,8.35v13.2h-5Z"/><path class="cls-1" d="M1398.37,92.2V76.13h-5.74V71.85h5.74V63.4h5v8.45h6.26v4.28h-6.26V91.42c0,1.56.52,2.09,2.08,2.09h5v4.43h-6.26C1400.46,97.94,1398.37,95.85,1398.37,92.2Z"/><path class="cls-1" d="M1413.92,84.85c0-9,6-13.52,12.16-13.52,6.78,0,11.06,4.7,11.06,11.48v2.87h-18.26c.31,5.95,4.12,8.61,7.3,8.61h.42c2.56,0,5-1.31,5.53-4.07h5c-.94,5.27-5.48,8.24-10.86,8.24C1419.76,98.46,1413.92,94,1413.92,84.85Zm18.26-3.08c-.21-4.54-2.92-6.26-5.89-6.26h-.42c-2.71,0-5.74,1.61-6.68,6.26Z"/><path class="cls-1" d="M1443.4,71.85h4.69v5.74a7.72,7.72,0,0,1,7.57-6H1458v4.8h-2.09c-4.69,0-7.56,3.13-7.56,8.35v13.2h-5Z"/><path class="cls-1" d="M1544.88,71.85h4.7v5.74a7.7,7.7,0,0,1,7.56-6h2.35v4.8h-2.08c-4.7,0-7.57,3.13-7.57,8.35v13.2h-5Z"/><path class="cls-1" d="M1577.28,97.37v4.75q0,5.47-5.47,5.47h-8.61v-4.43h7.3c1.57,0,2.09-.52,2.09-2.09V97.42l-11-25.57h5.27L1575,91.11l7.83-19.26H1588Z"/><path class="cls-1" d="M1482.37,61.42h5.48v5.74h-5.48Zm.27,10.43h4.95V97.94h-4.95Z"/><path class="cls-1" d="M1498.13,92.2V76.13h-5.74V71.85h5.74V63.4h5v8.45h6.26v4.28h-6.26V91.42c0,1.56.52,2.09,2.09,2.09h5v4.43h-6.26C1500.22,97.94,1498.13,95.85,1498.13,92.2Z"/></svg>