<?xml version="1.0" encoding="UTF-8"?>
<svg width="236px" height="70px" viewBox="0 0 236 70" version="1.1" xmlns="http://www.w3.org/2000/svg" xmlns:xlink="http://www.w3.org/1999/xlink">
    <!-- Generator: Sketch 51.3 (57544) - http://www.bohemiancoding.com/sketch -->
    <title>Artboard Copy</title>
    <desc>Created with Sketch.</desc>
    <defs></defs>
    <g id="Artboard-Copy" stroke="none" stroke-width="1" fill="none" fill-rule="evenodd">
        <g id="id" transform="translate(0.000000, 17.000000)" stroke="#0000FF" stroke-width="0.8474">
            <g id="Group" transform="translate(32.000000, 0.000000)">
                <g id="Shape">
                    <path d="M0.58,0.42 L5.92,0.42 L5.92,6.02 L0.58,6.02 L0.58,0.42 Z M0.84,10.6 L5.67,10.6 L5.67,36.04 L0.84,36.04 L0.84,10.6 Z"></path>
                    <path d="M11.78,23.32 C11.78,14.92 16.87,10.09 23.23,10.09 C26.79,10.09 29.84,11.87 31.12,14.16 L31.12,0.42 L35.95,0.42 L35.95,36.04 L31.12,36.04 L31.12,32.48 C29.85,34.77 26.29,36.55 22.72,36.55 C16.36,36.55 11.78,31.71 11.78,23.32 Z M23.94,32.48 C27.55,32.48 31.11,29.43 31.11,23.32 C31.11,17.21 27.55,14.16 23.94,14.16 L23.53,14.16 C19.66,14.16 16.61,17.21 16.61,23.32 C16.61,29.43 19.66,32.48 23.53,32.48 L23.94,32.48 Z"></path>
                    <path d="M42.05,23.27 C42.05,14.47 47.9,10.09 53.91,10.09 C60.52,10.09 64.7,14.67 64.7,21.28 L64.7,24.08 L46.89,24.08 C47.19,29.88 50.91,32.48 54.01,32.48 L54.42,32.48 C56.91,32.48 59.3,31.21 59.81,28.51 L64.64,28.51 C63.72,33.65 59.3,36.55 54.06,36.55 C47.75,36.55 42.05,32.17 42.05,23.27 Z M59.86,20.26 C59.66,15.83 57.01,14.15 54.11,14.15 L53.7,14.15 C51.05,14.15 48.1,15.73 47.19,20.26 L59.86,20.26 Z"></path>
                    <path d="M70.8,10.6 L75.63,10.6 L75.63,14.16 C77.16,11.87 79.7,10.09 83.77,10.09 C89.62,10.09 92.93,13.65 92.93,18.99 L92.93,36.04 L88.1,36.04 L88.1,20.01 C88.1,16.45 86.57,14.16 82.96,14.16 L82.55,14.16 C78.94,14.16 75.63,16.96 75.63,21.79 L75.63,36.04 L70.8,36.04 L70.8,10.6 Z"></path>
                    <path d="M102.76,30.44 L102.76,14.77 L97.16,14.77 L97.16,10.6 L102.76,10.6 L102.76,2.36 L107.59,2.36 L107.59,10.6 L113.7,10.6 L113.7,14.77 L107.59,14.77 L107.59,29.68 C107.59,31.21 108.1,31.72 109.63,31.72 L114.46,31.72 L114.46,36.05 L108.35,36.05 C104.79,36.04 102.76,34 102.76,30.44 Z"></path>
                    <path d="M134.82,30.44 L134.82,14.77 L129.22,14.77 L129.22,10.6 L134.82,10.6 L134.82,2.36 L139.65,2.36 L139.65,10.6 L145.76,10.6 L145.76,14.77 L139.65,14.77 L139.65,29.68 C139.65,31.21 140.16,31.72 141.69,31.72 L146.52,31.72 L146.52,36.05 L140.41,36.05 C136.85,36.04 134.82,34 134.82,30.44 Z"></path>
                    <path d="M164.23,35.48 L164.23,40.11 C164.23,43.67 162.45,45.45 158.89,45.45 L150.49,45.45 L150.49,41.12 L157.61,41.12 C159.14,41.12 159.65,40.61 159.65,39.08 L159.65,35.52 L148.96,10.59 L154.1,10.59 L162.04,29.37 L169.67,10.59 L174.66,10.59 L164.23,35.48 Z"></path>
                </g>
                <path d="M119.45,0.42 L124.79,0.42 L124.79,6.02 L119.45,6.02 L119.45,0.42 Z M119.7,10.6 L124.53,10.6 L124.53,36.04 L119.7,36.04 L119.7,10.6 Z" id="Shape"></path>
            </g>
            <g id="Group" transform="translate(0.000000, 11.000000)">
                <polygon id="Shape" points="23.36 5.96 7.79 12.19 23.36 18.26 23.36 23.84 0.55 14.45 0.55 10.16 23.36 0.77"></polygon>
                <polygon id="Shape" points="235.76 10.2 235.76 14.49 212.95 23.88 212.95 18.67 228.52 12.44 212.95 6.37 212.95 0.79"></polygon>
            </g>
            <g id="Group" transform="translate(0.000000, 11.000000)">
                <polygon id="Shape" points="23.36 5.96 7.79 12.19 23.36 18.26 23.36 23.84 0.55 14.45 0.55 10.16 23.36 0.77"></polygon>
                <polygon id="Shape" points="235.76 10.2 235.76 14.49 212.95 23.88 212.95 18.67 228.52 12.44 212.95 6.37 212.95 0.79"></polygon>
            </g>
        </g>
    </g>
</svg>