<?xml version="1.0" encoding="utf-8"?>
<!-- Generator: Adobe Illustrator 22.1.0, SVG Export Plug-In . SVG Version: 6.00 Build 0)  -->
<svg version="1.1" id="Layer_1" xmlns="http://www.w3.org/2000/svg" xmlns:xlink="http://www.w3.org/1999/xlink" x="0px" y="0px"
	 viewBox="0 0 236 70" style="enable-background:new 0 0 236 70;" xml:space="preserve">
<style type="text/css">
	.st0{fill:#0000FF;}
</style>
<title>Artboard Copy 4</title>
<desc>Created with Sketch.</desc>
<g id="Artboard-Copy-4">
	<g id="id_act" transform="translate(0.000000, 10.000000)">
		<path id="Shape" class="st0" d="M32.6,7.4h5.3V13h-5.3V7.4z M32.8,17.6h4.8V43h-4.8V17.6z"/>
		<path id="Shape_1_" class="st0" d="M43.8,30.3c0-8.4,5.1-13.2,11.5-13.2c3.6,0,6.6,1.8,7.9,4.1V7.4H68V43h-4.8v-3.5
			c-1.3,2.3-4.8,4.1-8.4,4.1C48.4,43.5,43.8,38.7,43.8,30.3z M55.9,39.5c3.6,0,7.2-3.1,7.2-9.2s-3.6-9.2-7.2-9.2h-0.4
			c-3.9,0-6.9,3-6.9,9.2s3.1,9.2,6.9,9.2H55.9z"/>
		<path id="Shape_2_" class="st0" d="M74.1,30.3c0-8.8,5.9-13.2,11.9-13.2c6.6,0,10.8,4.6,10.8,11.2v2.8H78.9c0.3,5.8,4,8.4,7.1,8.4
			h0.4c2.5,0,4.9-1.3,5.4-4h4.8c-0.9,5.1-5.3,8-10.6,8C79.8,43.5,74.1,39.2,74.1,30.3z M91.9,27.3c-0.2-4.4-2.8-6.1-5.8-6.1h-0.4
			c-2.7,0-5.6,1.6-6.5,6.1H91.9z"/>
		<path id="Shape_3_" class="st0" d="M102.8,17.6h4.8v3.6c1.8-2.7,4.9-4.2,8.1-4.1c5.8,0,9.2,3.6,9.2,8.9v17h-4.8V27
			c0-3.6-1.5-5.9-5.1-5.9h-0.4c-3.6,0-6.9,2.8-6.9,7.6V43h-4.8V17.6z"/>
		<path id="Shape_4_" class="st0" d="M134.8,37.4V21.8h-5.6v-4.2h5.6V9.4h4.8v8.2h6.1v4.2h-6.1v14.9c0,1.5,0.5,2,2,2h4.8V43h-6.1
			C136.8,43,134.8,41,134.8,37.4z"/>
		<path id="Shape_5_" class="st0" d="M166.8,37.4V21.8h-5.6v-4.2h5.6V9.4h4.8v8.2h6.1v4.2h-6.1v14.9c0,1.5,0.5,2,2,2h4.8V43h-6.1
			C168.9,43,166.8,41,166.8,37.4z"/>
		<path id="Shape_6_" class="st0" d="M196.2,42.5v4.6c0,3.6-1.8,5.3-5.3,5.3h-8.4v-4.3h7.1c1.5,0,2-0.5,2-2v-3.6L181,17.6h5.1
			l7.9,18.8l7.6-18.8h5L196.2,42.5z"/>
		<path id="Shape_7_" class="st0" d="M151.4,7.4h5.3V13h-5.3V7.4z M151.7,17.6h4.8V43h-4.8V17.6z"/>
		<polygon id="Shape_8_" class="st0" points="23.4,24 7.8,30.2 23.4,36.3 23.4,41.9 0.6,32.5 0.6,28.1 23.4,18.8 		"/>
		<polygon id="Shape_9_" class="st0" points="235.8,28.2 235.8,32.5 213,41.9 213,36.7 228.6,30.5 213,24.4 213,18.8 		"/>
		<polygon id="Shape_10_" class="st0" points="23.4,24 7.8,30.2 23.4,36.3 23.4,41.9 0.6,32.5 0.6,28.1 23.4,18.8 		"/>
		<polygon id="Shape_11_" class="st0" points="235.8,28.2 235.8,32.5 213,41.9 213,36.7 228.6,30.5 213,24.4 213,18.8 		"/>
	</g>
</g>
</svg>
