<?xml version="1.0" encoding="utf-8"?>
<!-- Generator: Adobe Illustrator 22.1.0, SVG Export Plug-In . SVG Version: 6.00 Build 0)  -->
<svg version="1.1" id="Layer_1" xmlns="http://www.w3.org/2000/svg" xmlns:xlink="http://www.w3.org/1999/xlink" x="0px" y="0px"
	 viewBox="0 0 168 70" style="enable-background:new 0 0 168 70;" xml:space="preserve">
<style type="text/css">
	.st0{fill:#231F20;}
</style>
<title>Artboard Copy 3</title>
<desc>Created with Sketch.</desc>
<g id="Artboard-Copy-3">
	<g id="span" transform="translate(1.000000, 0.000000)">
		<path id="Shape" class="st0" d="M102.3,53.4c-0.3-1.3-0.3-3.9-0.3-4.2c-1,2.3-4.2,4.7-8.4,4.7c-5,0-8.6-3.3-8.6-7.7
			c0-6,5.3-7.7,9.5-8.1l7.2-0.6v-0.8c0-3.7-2.1-5.8-5.4-5.8h-0.4c-2.7,0-5.1,1.3-5.4,3.9h-5c0.3-4.8,4.7-8.1,10.6-8.1
			c6.9,0,10.6,4.6,10.6,9.9v11c0,1.6,0,3.9,0.3,5.8L102.3,53.4L102.3,53.4z M101.8,44v-2.7l-6.5,0.5c-3,0.3-5.2,1.7-5.2,4.1
			c0,2.1,1.8,3.8,4.2,3.8h0.4C97.9,49.7,101.8,47.1,101.8,44z"/>
		<g id="Group_1_" transform="translate(0.000000, 26.000000)">
			<polygon id="Shape_2_" class="st0" points="22.8,7.8 7.7,13.8 22.8,19.7 22.8,25.2 0.6,16 0.6,11.9 22.8,2.7 			"/>
			<path id="Shape_3_" class="st0" d="M28.2,19.3h5c0.3,2.9,2.7,4.4,5.8,4.4h0.4c2.7,0,4.9-1.3,4.9-3.4c0-1.7-0.9-2.8-3.5-3.3
				l-3.8-0.7c-4.2-0.8-7.6-3-7.6-7.5c0-5.2,4.7-8,9.9-8c6.8,0,10.3,3.7,10.3,8.6h-5c-0.3-2.3-1.9-4.4-5.1-4.4H39
				c-2.9,0-4.8,1.5-4.8,3.3c0,1.6,1,2.8,3.7,3.3l4.1,0.8c4,0.8,7.2,2.9,7.2,7.6c0,4.7-4.2,7.8-10.3,7.8C32,27.9,28.5,24.2,28.2,19.3
				z"/>
			<path id="Shape_4_" class="st0" d="M55.7,1.2h5v3.7c1.3-2.3,5-4.2,8.6-4.2c6.5,0,11.2,5,11.2,13.6s-5.2,13.6-11.8,13.6
				c-3.7,0-6.8-1.8-8.1-4.2v14.1h-5V1.2z M68.5,23.7c4,0,7.1-3.1,7.1-9.4s-3.1-9.4-7.1-9.4H68c-3.7,0-7.4,3.1-7.4,9.4
				s3.7,9.4,7.4,9.4H68.5z"/>
			<path id="Shape_5_" class="st0" d="M114.3,1.2h5v3.7c1.6-2.3,4.2-4.2,8.4-4.2c6,0,9.4,3.7,9.4,9.1v17.5h-5V10.9
				c0-3.7-1.6-6-5.3-6h-0.4c-3.7,0-7.1,2.9-7.1,7.8v14.6h-5V1.2z"/>
			<polygon id="Shape_6_" class="st0" points="166.4,11.9 166.4,16.1 144.2,25.2 144.2,20.1 159.4,14.1 144.2,8.2 144.2,2.8 			"/>
		</g>
	</g>
</g>
</svg>
