<?xml version="1.0" encoding="UTF-8"?>
<svg width="332px" height="70px" viewBox="0 0 332 70" version="1.1" xmlns="http://www.w3.org/2000/svg" xmlns:xlink="http://www.w3.org/1999/xlink">
    <!-- Generator: Sketch 51.3 (57544) - http://www.bohemiancoding.com/sketch -->
    <title>Artboard Copy 6</title>
    <desc>Created with Sketch.</desc>
    <defs></defs>
    <g id="Artboard-Copy-6" stroke="none" stroke-width="1" fill="none" fill-rule="evenodd">
        <g id="sur" transform="translate(1.000000, 18.000000)" stroke="#0000FF">
            <path d="M249.53,23.07 C249.53,15.67 253.86,9.98 261.61,9.98 C267.34,9.98 271.42,13.35 271.92,18.79 L267.14,18.79 C266.852692,16.0652419 264.549846,14.0000253 261.81,14.01 L261.41,14.01 C256.57,14.01 254.31,18.29 254.31,23.07 C254.31,27.85 256.57,32.13 261.41,32.13 L261.81,32.13 C264.549846,32.1399747 266.852692,30.0747581 267.14,27.35 L271.92,27.35 C271.42,32.78 267.34,36.15 261.61,36.15 C253.86,36.15 249.53,30.47 249.53,23.07 Z" id="Shape"></path>
            <path d="M31.9,27.85 L36.68,27.85 C36.99,30.67 39.3,32.13 42.27,32.13 L42.67,32.13 C45.29,32.13 47.35,30.87 47.35,28.85 C47.35,27.24 46.45,26.14 43.93,25.63 L40.26,24.93 C36.18,24.12 32.91,22.01 32.91,17.73 C32.91,12.73 37.39,9.98 42.42,9.98 C49.01,9.98 52.42,13.5 52.42,18.29 L47.63,18.29 C47.4380379,15.7529756 45.2388377,13.8437308 42.7,14.01 L42.3,14.01 C39.48,14.01 37.72,15.47 37.72,17.23 C37.72,18.74 38.72,19.95 41.24,20.45 L45.24,21.25 C49.06,22.01 52.18,24.07 52.18,28.6 C52.18,33.13 48.11,36.15 42.27,36.15 C35.53,36.15 32.15,32.63 31.9,27.85 Z" id="Shape"></path>
            <path d="M58.12,27.09 L58.12,10.48 L62.91,10.48 L62.91,26.09 C62.91,30.09 64.57,32.09 67.99,32.09 L68.39,32.09 C71.61,32.09 74.73,29.09 74.73,24.03 L74.73,10.48 L79.51,10.48 L79.51,35.65 L74.73,35.65 L74.73,30.87 C73.73,33.64 71.06,36.15 66.73,36.15 C61,36.15 58.12,32.38 58.12,27.09 Z" id="Shape"></path>
            <path d="M87.06,10.48 L91.59,10.48 L91.59,16 C92.3673619,12.5987441 95.4010849,10.1925446 98.89,10.21 L101.16,10.2099056 L101.16,14.84 L99.16,14.84 C94.63,14.84 91.87,17.84 91.87,22.9 L91.87,35.65 L87.08,35.65 L87.06,10.48 Z" id="Shape"></path>
            <polygon id="Shape" points="127.43 10.48 118.12 35.65 112.33 35.65 103 10.48 108 10.48 115.3 30.97 122.6 10.48"></polygon>
            <path d="M129.89,23 C129.89,14.29 135.68,10 141.62,10 C148.16,10 152.29,14.53 152.29,21.07 L152.29,23.84 L134.68,23.84 C134.98,29.58 138.68,32.15 141.68,32.15 L142.08,32.15 C144.55,32.15 146.92,30.89 147.42,28.22 L152.2,28.22 C151.29,33.3 146.92,36.22 141.73,36.22 C135.53,36.15 129.89,31.82 129.89,23 Z M147.51,20 C147.31,15.62 144.69,14 141.82,14 L141.42,14 C138.8,14 135.88,15.56 134.98,20 L147.51,20 Z" id="Shape"></path>
            <path d="M158.08,0.42 L163.36,0.42 L163.36,6 L158.08,6 L158.08,0.42 Z M158.33,10.48 L163.11,10.48 L163.11,35.65 L158.33,35.65 L158.33,10.48 Z" id="Shape"></path>
            <polygon id="Shape" points="170.66 0.42 175.44 0.42 175.44 35.65 170.66 35.65"></polygon>
            <polygon id="Shape" points="183 0.42 187.78 0.42 187.78 35.65 183 35.65"></polygon>
            <path d="M210.27,35.65 C210.091398,34.3243332 210.007851,32.9875887 210.02,31.65 C209.02,33.92 206.02,36.18 202.02,36.18 C197.23,36.18 193.71,33.01 193.71,28.73 C193.71,23 198.8,21.28 202.87,20.93 L209.87,20.38 L209.87,19.57 C209.87,16.05 207.87,14.04 204.63,14.04 L204.23,14.04 C201.61,14.04 199.35,15.3 199.05,17.81 L194.26,17.81 C194.57,13.18 198.74,10.01 204.43,10.01 C211.13,10.01 214.65,14.44 214.65,19.57 L214.65,30.11 C214.614042,31.9601222 214.697549,33.8106363 214.9,35.65 L210.27,35.65 Z M209.77,26.59 L209.77,24 L203.48,24.51 C200.56,24.76 198.48,26.17 198.48,28.51 C198.48,30.58 200.19,32.14 202.56,32.14 L202.96,32.14 C206,32.13 209.77,29.61 209.77,26.59 Z" id="Shape"></path>
            <path d="M221.85,10.48 L226.63,10.48 L226.63,14 C228.408136,11.353101 231.445599,9.83436943 234.63,10 C240.42,10 243.69,13.52 243.69,18.81 L243.69,35.65 L239,35.65 L239,19.8 C239,16.27 237.49,14.01 233.92,14.01 L233.51,14.01 C229.94,14.01 226.67,16.78 226.67,21.56 L226.67,35.65 L221.89,35.65 L221.85,10.48 Z" id="Shape"></path>
            <path d="M276.3,23 C276.3,14.29 282.09,10 288.03,10 C294.57,10 298.7,14.53 298.7,21.07 L298.7,23.84 L281.08,23.84 C281.39,29.58 285.08,32.15 288.13,32.15 L288.53,32.15 C291,32.15 293.36,30.89 293.87,28.22 L298.65,28.22 C297.74,33.3 293.36,36.22 288.18,36.22 C281.94,36.15 276.3,31.82 276.3,23 Z M293.92,20 C293.72,15.62 291.1,14 288.23,14 L287.83,14 C285.21,14 282.29,15.56 281.39,20 L293.92,20 Z" id="Shape"></path>
            <path d="M249.53,23.07 C249.53,15.67 253.86,9.98 261.61,9.98 C267.34,9.98 271.42,13.35 271.92,18.79 L267.14,18.79 C266.852692,16.0652419 264.549846,14.0000253 261.81,14.01 L261.41,14.01 C256.57,14.01 254.31,18.29 254.31,23.07 C254.31,27.85 256.57,32.13 261.41,32.13 L261.81,32.13 C264.549846,32.1399747 266.852692,30.0747581 267.14,27.35 L271.92,27.35 C271.42,32.78 267.34,36.15 261.61,36.15 C253.86,36.15 249.53,30.47 249.53,23.07 Z" id="Shape"></path>
            <path d="M31.9,27.85 L36.68,27.85 C36.99,30.67 39.3,32.13 42.27,32.13 L42.67,32.13 C45.29,32.13 47.35,30.87 47.35,28.85 C47.35,27.24 46.45,26.14 43.93,25.63 L40.26,24.93 C36.18,24.12 32.91,22.01 32.91,17.73 C32.91,12.73 37.39,9.98 42.42,9.98 C49.01,9.98 52.42,13.5 52.42,18.29 L47.63,18.29 C47.4380379,15.7529756 45.2388377,13.8437308 42.7,14.01 L42.3,14.01 C39.48,14.01 37.72,15.47 37.72,17.23 C37.72,18.74 38.72,19.95 41.24,20.45 L45.24,21.25 C49.06,22.01 52.18,24.07 52.18,28.6 C52.18,33.13 48.11,36.15 42.27,36.15 C35.53,36.15 32.15,32.63 31.9,27.85 Z" id="Shape"></path>
            <path d="M58.12,27.09 L58.12,10.48 L62.91,10.48 L62.91,26.09 C62.91,30.09 64.57,32.09 67.99,32.09 L68.39,32.09 C71.61,32.09 74.73,29.09 74.73,24.03 L74.73,10.48 L79.51,10.48 L79.51,35.65 L74.73,35.65 L74.73,30.87 C73.73,33.64 71.06,36.15 66.73,36.15 C61,36.15 58.12,32.38 58.12,27.09 Z" id="Shape"></path>
            <path d="M87.06,10.48 L91.59,10.48 L91.59,16 C92.3673619,12.5987441 95.4010849,10.1925446 98.89,10.21 L101.16,10.2099056 L101.16,14.84 L99.16,14.84 C94.63,14.84 91.87,17.84 91.87,22.9 L91.87,35.65 L87.08,35.65 L87.06,10.48 Z" id="Shape"></path>
            <polygon id="Shape" points="127.43 10.48 118.12 35.65 112.33 35.65 103 10.48 108 10.48 115.3 30.97 122.6 10.48"></polygon>
            <path d="M129.89,23 C129.89,14.29 135.68,10 141.62,10 C148.16,10 152.29,14.53 152.29,21.07 L152.29,23.84 L134.68,23.84 C134.98,29.58 138.68,32.15 141.68,32.15 L142.08,32.15 C144.55,32.15 146.92,30.89 147.42,28.22 L152.2,28.22 C151.29,33.3 146.92,36.22 141.73,36.22 C135.53,36.15 129.89,31.82 129.89,23 Z M147.51,20 C147.31,15.62 144.69,14 141.82,14 L141.42,14 C138.8,14 135.88,15.56 134.98,20 L147.51,20 Z" id="Shape"></path>
            <path d="M158.08,0.42 L163.36,0.42 L163.36,6 L158.08,6 L158.08,0.42 Z M158.33,10.48 L163.11,10.48 L163.11,35.65 L158.33,35.65 L158.33,10.48 Z" id="Shape"></path>
            <polygon id="Shape" points="170.66 0.42 175.44 0.42 175.44 35.65 170.66 35.65"></polygon>
            <polygon id="Shape" points="183 0.42 187.78 0.42 187.78 35.65 183 35.65"></polygon>
            <path d="M210.27,35.65 C210.091398,34.3243332 210.007851,32.9875887 210.02,31.65 C209.02,33.92 206.02,36.18 202.02,36.18 C197.23,36.18 193.71,33.01 193.71,28.73 C193.71,23 198.8,21.28 202.87,20.93 L209.87,20.38 L209.87,19.57 C209.87,16.05 207.87,14.04 204.63,14.04 L204.23,14.04 C201.61,14.04 199.35,15.3 199.05,17.81 L194.26,17.81 C194.57,13.18 198.74,10.01 204.43,10.01 C211.13,10.01 214.65,14.44 214.65,19.57 L214.65,30.11 C214.614042,31.9601222 214.697549,33.8106363 214.9,35.65 L210.27,35.65 Z M209.77,26.59 L209.77,24 L203.48,24.51 C200.56,24.76 198.48,26.17 198.48,28.51 C198.48,30.58 200.19,32.14 202.56,32.14 L202.96,32.14 C206,32.13 209.77,29.61 209.77,26.59 Z" id="Shape"></path>
            <path d="M221.85,10.48 L226.63,10.48 L226.63,14 C228.408136,11.353101 231.445599,9.83436943 234.63,10 C240.42,10 243.69,13.52 243.69,18.81 L243.69,35.65 L239,35.65 L239,19.8 C239,16.27 237.49,14.01 233.92,14.01 L233.51,14.01 C229.94,14.01 226.67,16.78 226.67,21.56 L226.67,35.65 L221.89,35.65 L221.85,10.48 Z" id="Shape"></path>
            <path d="M276.3,23 C276.3,14.29 282.09,10 288.03,10 C294.57,10 298.7,14.53 298.7,21.07 L298.7,23.84 L281.08,23.84 C281.39,29.58 285.08,32.15 288.13,32.15 L288.53,32.15 C291,32.15 293.36,30.89 293.87,28.22 L298.65,28.22 C297.74,33.3 293.36,36.22 288.18,36.22 C281.94,36.15 276.3,31.82 276.3,23 Z M293.92,20 C293.72,15.62 291.1,14 288.23,14 L287.83,14 C285.21,14 282.29,15.56 281.39,20 L293.92,20 Z" id="Shape"></path>
            <polygon id="Shape" points="23 16.76 7.41 23 23 29.05 23 34.63 0.19 25.24 0.19 21 23 11.6"></polygon>
            <polygon id="Shape" points="330.81 21 330.81 25.29 308 34.69 308 29.48 323.57 23.25 308 17.19 308 11.61"></polygon>
        </g>
    </g>
</svg>