<?xml version="1.0" encoding="utf-8"?>
<!-- Generator: Adobe Illustrator 22.1.0, SVG Export Plug-In . SVG Version: 6.00 Build 0)  -->
<svg version="1.1" id="Layer_1" xmlns="http://www.w3.org/2000/svg" xmlns:xlink="http://www.w3.org/1999/xlink" x="0px" y="0px"
	 viewBox="0 0 332 70" style="enable-background:new 0 0 332 70;" xml:space="preserve">
<style type="text/css">
	.st0{fill:#0000FF;}
</style>
<title>Artboard Copy 2</title>
<desc>Created with Sketch.</desc>
<g id="Artboard-Copy-2">
	<g id="sur_act" transform="translate(1.000000, 4.000000)">
		<path id="Shape" class="st0" d="M249.5,36.1c0-7.4,4.3-13.1,12.1-13.1c5.7,0,9.8,3.4,10.3,8.8h-4.8c-0.3-2.7-2.6-4.8-5.3-4.8h-0.4
			c-4.8,0-7.1,4.3-7.1,9.1s2.3,9.1,7.1,9.1h0.4c2.7,0,5-2.1,5.3-4.8h4.8c-0.5,5.4-4.6,8.8-10.3,8.8
			C253.9,49.2,249.5,43.5,249.5,36.1z"/>
		<path id="Shape_1_" class="st0" d="M31.9,40.8h4.8c0.3,2.8,2.6,4.3,5.6,4.3h0.4c2.6,0,4.7-1.3,4.7-3.3c0-1.6-0.9-2.7-3.4-3.2
			l-3.7-0.7c-4.1-0.8-7.3-2.9-7.3-7.2c0-5,4.5-7.8,9.5-7.8c6.6,0,10,3.5,10,8.3h-4.8c-0.2-2.5-2.4-4.4-4.9-4.3h-0.4
			c-2.8,0-4.6,1.5-4.6,3.2c0,1.5,1,2.7,3.5,3.2l4,0.8c3.8,0.8,6.9,2.8,6.9,7.3s-4.1,7.6-9.9,7.6C35.5,49.2,32.2,45.6,31.9,40.8z"/>
		<path id="Shape_2_" class="st0" d="M58.1,40.1V23.5h4.8v15.6c0,4,1.7,6,5.1,6h0.4c3.2,0,6.3-3,6.3-8.1V23.5h4.8v25.2h-4.8v-4.8
			c-1,2.8-3.7,5.3-8,5.3C61,49.2,58.1,45.4,58.1,40.1z"/>
		<path id="Shape_3_" class="st0" d="M87.1,23.5h4.5V29c0.8-3.4,3.8-5.8,7.3-5.8l2.3,0v4.6h-2c-4.5,0-7.3,3-7.3,8.1v12.8h-4.8
			L87.1,23.5z"/>
		<polygon id="Shape_4_" class="st0" points="127.4,23.5 118.1,48.7 112.3,48.7 103,23.5 108,23.5 115.3,44 122.6,23.5 		"/>
		<path id="Shape_5_" class="st0" d="M129.9,36c0-8.7,5.8-13,11.7-13c6.5,0,10.7,4.5,10.7,11.1v2.8h-17.6c0.3,5.7,4,8.3,7,8.3h0.4
			c2.5,0,4.8-1.3,5.3-3.9h4.8c-0.9,5.1-5.3,8-10.5,8C135.5,49.2,129.9,44.8,129.9,36z M147.5,33c-0.2-4.4-2.8-6-5.7-6h-0.4
			c-2.6,0-5.5,1.6-6.4,6H147.5z"/>
		<path id="Shape_6_" class="st0" d="M158.1,13.4h5.3V19h-5.3V13.4z M158.3,23.5h4.8v25.2h-4.8V23.5z"/>
		<polygon id="Shape_7_" class="st0" points="170.7,13.4 175.4,13.4 175.4,48.7 170.7,48.7 		"/>
		<polygon id="Shape_8_" class="st0" points="183,13.4 187.8,13.4 187.8,48.7 183,48.7 		"/>
		<path id="Shape_9_" class="st0" d="M210.3,48.7c-0.2-1.3-0.3-2.7-0.2-4c-1,2.3-4,4.5-8,4.5c-4.8,0-8.3-3.2-8.3-7.5
			c0-5.7,5.1-7.5,9.2-7.8l7-0.5v-0.8c0-3.5-2-5.5-5.2-5.5h-0.4c-2.6,0-4.9,1.3-5.2,3.8h-4.8c0.3-4.6,4.5-7.8,10.2-7.8
			c6.7,0,10.2,4.4,10.2,9.6v10.5c0,1.9,0,3.7,0.2,5.5H210.3z M209.8,39.6V37l-6.3,0.5c-2.9,0.2-5,1.7-5,4c0,2.1,1.7,3.6,4.1,3.6h0.4
			C206,45.1,209.8,42.6,209.8,39.6z"/>
		<path id="Shape_10_" class="st0" d="M221.9,23.5h4.8V27c1.8-2.6,4.8-4.2,8-4c5.8,0,9.1,3.5,9.1,8.8v16.8H239V32.8
			c0-3.5-1.5-5.8-5.1-5.8h-0.4c-3.6,0-6.8,2.8-6.8,7.6v14.1h-4.8L221.9,23.5z"/>
		<path id="Shape_11_" class="st0" d="M276.3,36c0-8.7,5.8-13,11.7-13c6.5,0,10.7,4.5,10.7,11.1v2.8h-17.6c0.3,5.7,4,8.3,7.1,8.3
			h0.4c2.5,0,4.8-1.3,5.3-3.9h4.8c-0.9,5.1-5.3,8-10.5,8C281.9,49.2,276.3,44.8,276.3,36z M293.9,33c-0.2-4.4-2.8-6-5.7-6h-0.4
			c-2.6,0-5.5,1.6-6.4,6H293.9z"/>
		<path id="Shape_12_" class="st0" d="M249.5,36.1c0-7.4,4.3-13.1,12.1-13.1c5.7,0,9.8,3.4,10.3,8.8h-4.8c-0.3-2.7-2.6-4.8-5.3-4.8
			h-0.4c-4.8,0-7.1,4.3-7.1,9.1s2.3,9.1,7.1,9.1h0.4c2.7,0,5-2.1,5.3-4.8h4.8c-0.5,5.4-4.6,8.8-10.3,8.8
			C253.9,49.2,249.5,43.5,249.5,36.1z"/>
		<path id="Shape_13_" class="st0" d="M31.9,40.8h4.8c0.3,2.8,2.6,4.3,5.6,4.3h0.4c2.6,0,4.7-1.3,4.7-3.3c0-1.6-0.9-2.7-3.4-3.2
			l-3.7-0.7c-4.1-0.8-7.3-2.9-7.3-7.2c0-5,4.5-7.8,9.5-7.8c6.6,0,10,3.5,10,8.3h-4.8c-0.2-2.5-2.4-4.4-4.9-4.3h-0.4
			c-2.8,0-4.6,1.5-4.6,3.2c0,1.5,1,2.7,3.5,3.2l4,0.8c3.8,0.8,6.9,2.8,6.9,7.3s-4.1,7.6-9.9,7.6C35.5,49.2,32.2,45.6,31.9,40.8z"/>
		<path id="Shape_14_" class="st0" d="M58.1,40.1V23.5h4.8v15.6c0,4,1.7,6,5.1,6h0.4c3.2,0,6.3-3,6.3-8.1V23.5h4.8v25.2h-4.8v-4.8
			c-1,2.8-3.7,5.3-8,5.3C61,49.2,58.1,45.4,58.1,40.1z"/>
		<path id="Shape_15_" class="st0" d="M87.1,23.5h4.5V29c0.8-3.4,3.8-5.8,7.3-5.8l2.3,0v4.6h-2c-4.5,0-7.3,3-7.3,8.1v12.8h-4.8
			L87.1,23.5z"/>
		<polygon id="Shape_16_" class="st0" points="127.4,23.5 118.1,48.7 112.3,48.7 103,23.5 108,23.5 115.3,44 122.6,23.5 		"/>
		<path id="Shape_17_" class="st0" d="M129.9,36c0-8.7,5.8-13,11.7-13c6.5,0,10.7,4.5,10.7,11.1v2.8h-17.6c0.3,5.7,4,8.3,7,8.3h0.4
			c2.5,0,4.8-1.3,5.3-3.9h4.8c-0.9,5.1-5.3,8-10.5,8C135.5,49.2,129.9,44.8,129.9,36z M147.5,33c-0.2-4.4-2.8-6-5.7-6h-0.4
			c-2.6,0-5.5,1.6-6.4,6H147.5z"/>
		<path id="Shape_18_" class="st0" d="M158.1,13.4h5.3V19h-5.3V13.4z M158.3,23.5h4.8v25.2h-4.8V23.5z"/>
		<polygon id="Shape_19_" class="st0" points="170.7,13.4 175.4,13.4 175.4,48.7 170.7,48.7 		"/>
		<polygon id="Shape_20_" class="st0" points="183,13.4 187.8,13.4 187.8,48.7 183,48.7 		"/>
		<path id="Shape_21_" class="st0" d="M210.3,48.7c-0.2-1.3-0.3-2.7-0.2-4c-1,2.3-4,4.5-8,4.5c-4.8,0-8.3-3.2-8.3-7.5
			c0-5.7,5.1-7.5,9.2-7.8l7-0.5v-0.8c0-3.5-2-5.5-5.2-5.5h-0.4c-2.6,0-4.9,1.3-5.2,3.8h-4.8c0.3-4.6,4.5-7.8,10.2-7.8
			c6.7,0,10.2,4.4,10.2,9.6v10.5c0,1.9,0,3.7,0.2,5.5H210.3z M209.8,39.6V37l-6.3,0.5c-2.9,0.2-5,1.7-5,4c0,2.1,1.7,3.6,4.1,3.6h0.4
			C206,45.1,209.8,42.6,209.8,39.6z"/>
		<path id="Shape_22_" class="st0" d="M221.9,23.5h4.8V27c1.8-2.6,4.8-4.2,8-4c5.8,0,9.1,3.5,9.1,8.8v16.8H239V32.8
			c0-3.5-1.5-5.8-5.1-5.8h-0.4c-3.6,0-6.8,2.8-6.8,7.6v14.1h-4.8L221.9,23.5z"/>
		<path id="Shape_23_" class="st0" d="M276.3,36c0-8.7,5.8-13,11.7-13c6.5,0,10.7,4.5,10.7,11.1v2.8h-17.6c0.3,5.7,4,8.3,7.1,8.3
			h0.4c2.5,0,4.8-1.3,5.3-3.9h4.8c-0.9,5.1-5.3,8-10.5,8C281.9,49.2,276.3,44.8,276.3,36z M293.9,33c-0.2-4.4-2.8-6-5.7-6h-0.4
			c-2.6,0-5.5,1.6-6.4,6H293.9z"/>
		<polygon id="Shape_24_" class="st0" points="23,29.8 7.4,36 23,42 23,47.6 0.2,38.2 0.2,34 23,24.6 		"/>
		<polygon id="Shape_25_" class="st0" points="330.8,34 330.8,38.3 308,47.7 308,42.5 323.6,36.2 308,30.2 308,24.6 		"/>
	</g>
</g>
</svg>
