<?xml version="1.0" encoding="utf-8"?>
<!-- Generator: Adobe Illustrator 22.1.0, SVG Export Plug-In . SVG Version: 6.00 Build 0)  -->
<svg version="1.1" id="Layer_1" xmlns="http://www.w3.org/2000/svg" xmlns:xlink="http://www.w3.org/1999/xlink" x="0px" y="0px"
	 viewBox="0 0 262 70" style="enable-background:new 0 0 262 70;" xml:space="preserve">
<style type="text/css">
	.st0{fill:#0000FF;}
</style>
<title>Artboard Copy 5</title>
<desc>Created with Sketch.</desc>
<g id="Artboard-Copy-5">
	<g id="te_act" transform="translate(1.000000, 10.000000)">
		<polygon id="Shape" class="st0" points="23.4,24.2 7.8,30.5 23.4,36.5 23.4,42.1 0.6,32.7 0.6,28.4 23.4,19 		"/>
		<polygon id="Shape_1_" class="st0" points="260.3,28.5 260.3,32.8 237.5,42.2 237.5,37 253,30.7 237.4,24.7 237.4,19.1 		"/>
		<path id="Shape_2_" class="st0" d="M153.6,30.9c0-8.1,5.5-13.6,12.5-13.6c7,0,12.5,5.5,12.5,13.6s-5.5,13.6-12.5,13.6
			C159.1,44.5,153.6,39,153.6,30.9z M166.4,40.3c4.2,0,7.4-3.4,7.4-9.4s-3.1-9.4-7.4-9.4h-0.4c-4.2,0-7.4,3.4-7.4,9.4
			s3.1,9.4,7.4,9.4H166.4z"/>
		<path id="Shape_3_" class="st0" d="M103,17.9h4.7v5.7c0.8-3.5,4-6,7.6-6l2.3,0v4.8h-2.1c-4.7,0-7.6,3.1-7.6,8.4v13.2h-5L103,17.9z
			"/>
		<path id="Shape_4_" class="st0" d="M38.4,38.2V22.1h-5.7v-4.3h5.7V9.4h5v8.5h6.3v4.3h-6.3v15.3c0,1.6,0.5,2.1,2.1,2.1h5v4.4h-6.3
			C40.5,43.9,38.4,41.8,38.4,38.2z"/>
		<path id="Shape_5_" class="st0" d="M53.9,30.9c0-9,6-13.5,12.2-13.5c6.8,0,11.1,4.7,11.1,11.5v2.9H58.9c0.3,6,4.1,8.6,7.3,8.6h0.4
			c2.6,0,5-1.3,5.5-4.1h5c-0.9,5.3-5.5,8.2-10.9,8.2C59.8,44.5,53.9,40,53.9,30.9z M72.2,27.8c-0.2-4.5-2.9-6.3-5.9-6.3h-0.4
			c-2.7,0-5.7,1.6-6.7,6.3H72.2z"/>
		<path id="Shape_6_" class="st0" d="M83.4,17.9h4.7v5.7c0.8-3.5,4-6,7.6-6l2.3,0v4.8h-2.1c-4.7,0-7.6,3.1-7.6,8.4v13.2h-5
			L83.4,17.9z"/>
		<path id="Shape_7_" class="st0" d="M184.9,17.9h4.7v5.7c0.8-3.5,3.9-6,7.6-6l2.4,0v4.8h-2.1c-4.7,0-7.6,3.1-7.6,8.4v13.2h-5
			L184.9,17.9z"/>
		<path id="Shape_8_" class="st0" d="M217.3,43.4v4.8c0,3.6-1.8,5.5-5.5,5.5h-8.6v-4.4h7.3c1.6,0,2.1-0.5,2.1-2.1v-3.7l-11-25.6h5.3
			l8.1,19.3l7.8-19.3h5.2L217.3,43.4z"/>
		<path id="Shape_9_" class="st0" d="M122.4,7.4h5.5v5.7h-5.5V7.4z M122.6,17.9h4.9v26.1h-4.9V17.9z"/>
		<path id="Shape_10_" class="st0" d="M138.1,38.2V22.1h-5.7v-4.3h5.7V9.4h5v8.5h6.3v4.3h-6.3v15.3c0,1.6,0.5,2.1,2.1,2.1h5v4.4H144
			C140.2,43.9,138.1,41.8,138.1,38.2z"/>
	</g>
</g>
</svg>
